# MagicaVoxel @ Ephtracy

# group
o 

# material
mtllib cv.mtl
usemtl palette

# normals
vn -1 0 0
vn 1 0 0
vn 0 0 1
vn 0 0 -1
vn 0 -1 0
vn 0 1 0

# texcoords
vt 0.853516 0.5
vt 0.857422 0.5

# verts
v -11.2 0.2 7.7
v -11.2 0.2 7.1
v -11.2 0.3 7.6
v -11.2 0.3 7.2
v -11.2 2.4 7.6
v -11.2 2.4 7.2
v -11.2 2.5 7.7
v -11.2 2.5 7.1
v -10.7 0.3 7.6
v -10.7 0.3 7.2
v -10.7 2.4 7.6
v -10.7 2.4 7.2
v -10 0.2 7.7
v -10 0.2 7.1
v -10 0.3 7.6
v -10 0.3 7.2
v -10 1.1 7.7
v -10 1.1 7.6
v -10 1.1 7.2
v -10 1.1 7.1
v -10 1.2 7.6
v -10 1.2 7.2
v -10 1.7 7.6
v -10 1.7 7.2
v -10 1.8 7.7
v -10 1.8 7.6
v -10 1.8 7.2
v -10 1.8 7.1
v -10 2.4 7.6
v -10 2.4 7.2
v -10 2.5 7.7
v -10 2.5 7.1
v -9.5 0.3 7.6
v -9.5 0.3 7.2
v -9.5 2.4 7.6
v -9.5 2.4 7.2
v -9.2 1.8 7.7
v -9.2 1.8 7.6
v -9.2 1.8 7.2
v -9.2 1.8 7.1
v -9.2 2.4 7.6
v -9.2 2.4 7.2
v -9.2 2.5 7.7
v -9.2 2.5 7.1
v -8.9 1.2 7.7
v -8.9 1.2 7.6
v -8.9 1.2 7.2
v -8.9 1.2 7.1
v -8.9 1.8 7.7
v -8.9 1.8 7.6
v -8.9 1.8 7.2
v -8.9 1.8 7.1
v -8.6 0.7 7.7
v -8.6 0.7 7.6
v -8.6 0.7 7.2
v -8.6 0.7 7.1
v -8.6 1.2 7.7
v -8.6 1.2 7.6
v -8.6 1.2 7.2
v -8.6 1.2 7.1
v -8.3 0.2 7.7
v -8.3 0.2 7.1
v -8.3 0.3 7.6
v -8.3 0.3 7.2
v -8.3 0.7 7.7
v -8.3 0.7 7.6
v -8.3 0.7 7.2
v -8.3 0.7 7.1
v -8 0.8 7.6
v -8 0.8 7.5
v -8 0.9 7.6
v -8 0.9 7.5
v -7.8 0.9 7.7
v -7.8 0.9 7.6
v -7.8 0.9 7.2
v -7.8 0.9 7.1
v -7.8 1.4 7.7
v -7.8 1.4 7.6
v -7.8 1.4 7.2
v -7.8 1.4 7.1
v -7.5 1.4 7.7
v -7.5 1.4 7.6
v -7.5 1.4 7.2
v -7.5 1.4 7.1
v -7.5 2 7.7
v -7.5 2 7.6
v -7.5 2 7.2
v -7.5 2 7.1
v -7.4 0.7 7.6
v -7.4 0.7 7.5
v -7.4 0.8 7.6
v -7.4 0.8 7.5
v -7.2 1.2 7.6
v -7.2 1.2 7.5
v -7.2 1.3 7.6
v -7.2 1.3 7.5
v -7.2 2 7.7
v -7.2 2 7.6
v -7.2 2 7.2
v -7.2 2 7.1
v -7.2 2.5 7.7
v -7.2 2.5 7.6
v -7.2 2.5 7.2
v -7.2 2.5 7.1
v -11.1 0.3 7.6
v -11.1 0.3 7.2
v -11.1 2.4 7.6
v -11.1 2.4 7.2
v -10.6 0.2 7.7
v -10.6 0.2 7.1
v -10.6 0.3 7.6
v -10.6 0.3 7.2
v -10.6 1.1 7.7
v -10.6 1.1 7.6
v -10.6 1.1 7.2
v -10.6 1.1 7.1
v -10.6 1.8 7.7
v -10.6 1.8 7.6
v -10.6 1.8 7.2
v -10.6 1.8 7.1
v -10.6 2.4 7.6
v -10.6 2.4 7.2
v -10.6 2.5 7.7
v -10.6 2.5 7.1
v -10.5 1.2 7.6
v -10.5 1.2 7.2
v -10.5 1.7 7.6
v -10.5 1.7 7.2
v -9.9 0.3 7.6
v -9.9 0.3 7.2
v -9.9 2.4 7.6
v -9.9 2.4 7.2
v -9.4 0.2 7.7
v -9.4 0.2 7.1
v -9.4 0.3 7.6
v -9.4 0.3 7.2
v -9.4 2.4 7.6
v -9.4 2.4 7.2
v -9.4 2.5 7.7
v -9.4 2.5 7.1
v -8.6 2 7.7
v -8.6 2 7.6
v -8.6 2 7.2
v -8.6 2 7.1
v -8.6 2.5 7.7
v -8.6 2.5 7.6
v -8.6 2.5 7.2
v -8.6 2.5 7.1
v -8.3 1.3 7.6
v -8.3 1.3 7.5
v -8.3 1.4 7.7
v -8.3 1.4 7.6
v -8.3 1.4 7.5
v -8.3 1.4 7.2
v -8.3 1.4 7.1
v -8.3 2 7.7
v -8.3 2 7.6
v -8.3 2 7.2
v -8.3 2 7.1
v -8.1 0.8 7.6
v -8.1 0.8 7.5
v -8.1 1.3 7.6
v -8.1 1.3 7.5
v -8 0.9 7.7
v -8 0.9 7.6
v -8 0.9 7.5
v -8 0.9 7.2
v -8 0.9 7.1
v -8 1.4 7.7
v -8 1.4 7.6
v -8 1.4 7.5
v -8 1.4 7.2
v -8 1.4 7.1
v -7.5 0.2 7.7
v -7.5 0.2 7.1
v -7.5 0.3 7.6
v -7.5 0.3 7.2
v -7.5 0.7 7.7
v -7.5 0.7 7.6
v -7.5 0.7 7.5
v -7.5 0.7 7.2
v -7.5 0.7 7.1
v -7.5 0.8 7.6
v -7.5 0.8 7.5
v -7.3 1.2 7.6
v -7.3 1.2 7.5
v -7.3 1.3 7.6
v -7.3 1.3 7.5
v -7.2 0.7 7.7
v -7.2 0.7 7.6
v -7.2 0.7 7.2
v -7.2 0.7 7.1
v -7.2 1.2 7.7
v -7.2 1.2 7.6
v -7.2 1.2 7.2
v -7.2 1.2 7.1
v -6.9 1.2 7.7
v -6.9 1.2 7.6
v -6.9 1.2 7.2
v -6.9 1.2 7.1
v -6.9 1.8 7.7
v -6.9 1.8 7.6
v -6.9 1.8 7.2
v -6.9 1.8 7.1
v -6.6 1.8 7.7
v -6.6 1.8 7.6
v -6.6 1.8 7.2
v -6.6 1.8 7.1
v -6.6 2.4 7.6
v -6.6 2.4 7.2
v -6.6 2.5 7.7
v -6.6 2.5 7.1
v -11.2 0.2 7.7
v -11.2 2.5 7.7
v -11.1 0.3 7.7
v -11.1 2.4 7.7
v -10.7 0.3 7.7
v -10.7 1.2 7.7
v -10.7 1.7 7.7
v -10.7 2.4 7.7
v -10.6 0.2 7.7
v -10.6 1.1 7.7
v -10.6 1.8 7.7
v -10.6 2.5 7.7
v -10 0.2 7.7
v -10 1.1 7.7
v -10 1.8 7.7
v -10 2.5 7.7
v -9.9 0.3 7.7
v -9.9 1.2 7.7
v -9.9 1.7 7.7
v -9.9 2.4 7.7
v -9.5 0.3 7.7
v -9.5 2.4 7.7
v -9.4 0.2 7.7
v -9.4 2.5 7.7
v -9.2 1.8 7.7
v -9.2 2.5 7.7
v -9.1 1.9 7.7
v -9.1 2.4 7.7
v -8.9 1.2 7.7
v -8.9 1.8 7.7
v -8.8 1.3 7.7
v -8.8 1.9 7.7
v -8.7 1.9 7.7
v -8.7 2.4 7.7
v -8.6 0.7 7.7
v -8.6 1.2 7.7
v -8.6 2 7.7
v -8.6 2.5 7.7
v -8.5 0.8 7.7
v -8.5 1.3 7.7
v -8.4 1.3 7.7
v -8.4 1.9 7.7
v -8.3 0.2 7.7
v -8.3 0.7 7.7
v -8.3 1.4 7.7
v -8.3 2 7.7
v -8.2 0.3 7.7
v -8.2 0.8 7.7
v -8.1 0.8 7.7
v -8.1 1.3 7.7
v -8 0.9 7.7
v -8 1.4 7.7
v -7.8 0.9 7.7
v -7.8 1.4 7.7
v -7.7 0.8 7.7
v -7.7 1.3 7.7
v -7.6 0.3 7.7
v -7.6 0.8 7.7
v -7.5 0.2 7.7
v -7.5 0.7 7.7
v -7.5 1.4 7.7
v -7.5 2 7.7
v -7.4 1.3 7.7
v -7.4 1.9 7.7
v -7.3 0.8 7.7
v -7.3 1.3 7.7
v -7.2 0.7 7.7
v -7.2 1.2 7.7
v -7.2 2 7.7
v -7.2 2.5 7.7
v -7.1 1.9 7.7
v -7.1 2.4 7.7
v -7 1.3 7.7
v -7 1.9 7.7
v -6.9 1.2 7.7
v -6.9 1.8 7.7
v -6.7 1.9 7.7
v -6.7 2.4 7.7
v -6.6 1.8 7.7
v -6.6 2.5 7.7
v -8.3 1.3 7.5
v -8.3 1.4 7.5
v -8.1 0.8 7.5
v -8.1 1.3 7.5
v -8 0.8 7.5
v -8 0.9 7.5
v -8 1.4 7.5
v -7.5 0.7 7.5
v -7.5 0.8 7.5
v -7.4 0.7 7.5
v -7.4 0.8 7.5
v -7.3 1.2 7.5
v -7.3 1.3 7.5
v -7.2 1.2 7.5
v -7.2 1.3 7.5
v -11.1 0.3 7.2
v -11.1 2.4 7.2
v -10.7 0.3 7.2
v -10.7 2.4 7.2
v -10.5 1.2 7.2
v -10.5 1.7 7.2
v -10 1.2 7.2
v -10 1.7 7.2
v -9.9 0.3 7.2
v -9.9 2.4 7.2
v -9.5 0.3 7.2
v -9.5 2.4 7.2
v -11.1 0.3 7.6
v -11.1 2.4 7.6
v -10.7 0.3 7.6
v -10.7 2.4 7.6
v -10.5 1.2 7.6
v -10.5 1.7 7.6
v -10 1.2 7.6
v -10 1.7 7.6
v -9.9 0.3 7.6
v -9.9 2.4 7.6
v -9.5 0.3 7.6
v -9.5 2.4 7.6
v -8.3 1.3 7.6
v -8.3 1.4 7.6
v -8.1 0.8 7.6
v -8.1 1.3 7.6
v -8 0.8 7.6
v -8 0.9 7.6
v -8 1.4 7.6
v -7.5 0.7 7.6
v -7.5 0.8 7.6
v -7.4 0.7 7.6
v -7.4 0.8 7.6
v -7.3 1.2 7.6
v -7.3 1.3 7.6
v -7.2 1.2 7.6
v -7.2 1.3 7.6
v -11.2 0.2 7.1
v -11.2 2.5 7.1
v -11.1 0.3 7.1
v -11.1 2.4 7.1
v -10.7 0.3 7.1
v -10.7 1.2 7.1
v -10.7 1.7 7.1
v -10.7 2.4 7.1
v -10.6 0.2 7.1
v -10.6 1.1 7.1
v -10.6 1.8 7.1
v -10.6 2.5 7.1
v -10 0.2 7.1
v -10 1.1 7.1
v -10 1.8 7.1
v -10 2.5 7.1
v -9.9 0.3 7.1
v -9.9 1.2 7.1
v -9.9 1.7 7.1
v -9.9 2.4 7.1
v -9.5 0.3 7.1
v -9.5 2.4 7.1
v -9.4 0.2 7.1
v -9.4 2.5 7.1
v -9.2 1.8 7.1
v -9.2 2.5 7.1
v -9.1 1.9 7.1
v -9.1 2.4 7.1
v -8.9 1.2 7.1
v -8.9 1.8 7.1
v -8.8 1.3 7.1
v -8.8 1.9 7.1
v -8.7 1.9 7.1
v -8.7 2.4 7.1
v -8.6 0.7 7.1
v -8.6 1.2 7.1
v -8.6 2 7.1
v -8.6 2.5 7.1
v -8.5 0.8 7.1
v -8.5 1.3 7.1
v -8.4 1.3 7.1
v -8.4 1.9 7.1
v -8.3 0.2 7.1
v -8.3 0.7 7.1
v -8.3 1.4 7.1
v -8.3 2 7.1
v -8.2 0.3 7.1
v -8.2 0.8 7.1
v -8.1 0.8 7.1
v -8.1 1.3 7.1
v -8 0.9 7.1
v -8 1.4 7.1
v -7.8 0.9 7.1
v -7.8 1.4 7.1
v -7.7 0.8 7.1
v -7.7 1.3 7.1
v -7.6 0.3 7.1
v -7.6 0.8 7.1
v -7.5 0.2 7.1
v -7.5 0.7 7.1
v -7.5 1.4 7.1
v -7.5 2 7.1
v -7.4 1.3 7.1
v -7.4 1.9 7.1
v -7.3 0.8 7.1
v -7.3 1.3 7.1
v -7.2 0.7 7.1
v -7.2 1.2 7.1
v -7.2 2 7.1
v -7.2 2.5 7.1
v -7.1 1.9 7.1
v -7.1 2.4 7.1
v -7 1.3 7.1
v -7 1.9 7.1
v -6.9 1.2 7.1
v -6.9 1.8 7.1
v -6.7 1.9 7.1
v -6.7 2.4 7.1
v -6.6 1.8 7.1
v -6.6 2.5 7.1
v -11.2 0.2 7.7
v -10.6 0.2 7.7
v -10 0.2 7.7
v -9.4 0.2 7.7
v -8.3 0.2 7.7
v -7.5 0.2 7.7
v -11.2 0.2 7.1
v -10.6 0.2 7.1
v -10 0.2 7.1
v -9.4 0.2 7.1
v -8.3 0.2 7.1
v -7.5 0.2 7.1
v -8.6 0.7 7.7
v -8.3 0.7 7.7
v -7.5 0.7 7.7
v -7.2 0.7 7.7
v -8.6 0.7 7.6
v -8.3 0.7 7.6
v -7.5 0.7 7.6
v -7.4 0.7 7.6
v -7.2 0.7 7.6
v -7.5 0.7 7.5
v -7.4 0.7 7.5
v -8.6 0.7 7.2
v -8.3 0.7 7.2
v -7.5 0.7 7.2
v -7.2 0.7 7.2
v -8.6 0.7 7.1
v -8.3 0.7 7.1
v -7.5 0.7 7.1
v -7.2 0.7 7.1
v -7.5 0.8 7.6
v -7.4 0.8 7.6
v -7.5 0.8 7.5
v -7.4 0.8 7.5
v -10.6 1.1 7.7
v -10 1.1 7.7
v -10.6 1.1 7.6
v -10 1.1 7.6
v -10.6 1.1 7.2
v -10 1.1 7.2
v -10.6 1.1 7.1
v -10 1.1 7.1
v -8.9 1.2 7.7
v -8.6 1.2 7.7
v -7.2 1.2 7.7
v -6.9 1.2 7.7
v -8.9 1.2 7.6
v -8.6 1.2 7.6
v -7.2 1.2 7.6
v -6.9 1.2 7.6
v -8.9 1.2 7.2
v -8.6 1.2 7.2
v -7.2 1.2 7.2
v -6.9 1.2 7.2
v -8.9 1.2 7.1
v -8.6 1.2 7.1
v -7.2 1.2 7.1
v -6.9 1.2 7.1
v -7.3 1.3 7.6
v -7.2 1.3 7.6
v -7.3 1.3 7.5
v -7.2 1.3 7.5
v -10.5 1.7 7.6
v -10 1.7 7.6
v -10.5 1.7 7.2
v -10 1.7 7.2
v -9.2 1.8 7.7
v -8.9 1.8 7.7
v -6.9 1.8 7.7
v -6.6 1.8 7.7
v -9.2 1.8 7.6
v -8.9 1.8 7.6
v -6.9 1.8 7.6
v -6.6 1.8 7.6
v -9.2 1.8 7.2
v -8.9 1.8 7.2
v -6.9 1.8 7.2
v -6.6 1.8 7.2
v -9.2 1.8 7.1
v -8.9 1.8 7.1
v -6.9 1.8 7.1
v -6.6 1.8 7.1
v -11.1 2.4 7.6
v -10.7 2.4 7.6
v -9.9 2.4 7.6
v -9.5 2.4 7.6
v -11.1 2.4 7.2
v -10.7 2.4 7.2
v -9.9 2.4 7.2
v -9.5 2.4 7.2
v -11.1 0.3 7.6
v -10.7 0.3 7.6
v -9.9 0.3 7.6
v -9.5 0.3 7.6
v -11.1 0.3 7.2
v -10.7 0.3 7.2
v -9.9 0.3 7.2
v -9.5 0.3 7.2
v -8.1 0.8 7.6
v -8 0.8 7.6
v -8.1 0.8 7.5
v -8 0.8 7.5
v -8 0.9 7.7
v -7.8 0.9 7.7
v -8 0.9 7.6
v -7.8 0.9 7.6
v -8 0.9 7.5
v -8 0.9 7.2
v -7.8 0.9 7.2
v -8 0.9 7.1
v -7.8 0.9 7.1
v -10.5 1.2 7.6
v -10 1.2 7.6
v -7.3 1.2 7.6
v -7.2 1.2 7.6
v -7.3 1.2 7.5
v -7.2 1.2 7.5
v -10.5 1.2 7.2
v -10 1.2 7.2
v -8.3 1.3 7.6
v -8.1 1.3 7.6
v -8.3 1.3 7.5
v -8.1 1.3 7.5
v -8.3 1.4 7.7
v -8 1.4 7.7
v -7.8 1.4 7.7
v -7.5 1.4 7.7
v -8.3 1.4 7.6
v -8 1.4 7.6
v -7.8 1.4 7.6
v -7.5 1.4 7.6
v -8.3 1.4 7.5
v -8 1.4 7.5
v -8.3 1.4 7.2
v -8 1.4 7.2
v -7.8 1.4 7.2
v -7.5 1.4 7.2
v -8.3 1.4 7.1
v -8 1.4 7.1
v -7.8 1.4 7.1
v -7.5 1.4 7.1
v -10.6 1.8 7.7
v -10 1.8 7.7
v -10.6 1.8 7.6
v -10 1.8 7.6
v -10.6 1.8 7.2
v -10 1.8 7.2
v -10.6 1.8 7.1
v -10 1.8 7.1
v -8.6 2 7.7
v -8.3 2 7.7
v -7.5 2 7.7
v -7.2 2 7.7
v -8.6 2 7.6
v -8.3 2 7.6
v -7.5 2 7.6
v -7.2 2 7.6
v -8.6 2 7.2
v -8.3 2 7.2
v -7.5 2 7.2
v -7.2 2 7.2
v -8.6 2 7.1
v -8.3 2 7.1
v -7.5 2 7.1
v -7.2 2 7.1
v -11.2 2.5 7.7
v -10.6 2.5 7.7
v -10 2.5 7.7
v -9.4 2.5 7.7
v -9.2 2.5 7.7
v -8.6 2.5 7.7
v -7.2 2.5 7.7
v -6.6 2.5 7.7
v -11.1 2.5 7.6
v -10.7 2.5 7.6
v -9.9 2.5 7.6
v -9.5 2.5 7.6
v -9.1 2.5 7.6
v -8.6 2.5 7.6
v -7.2 2.5 7.6
v -6.7 2.5 7.6
v -11.1 2.5 7.2
v -10.7 2.5 7.2
v -9.9 2.5 7.2
v -9.5 2.5 7.2
v -9.1 2.5 7.2
v -8.6 2.5 7.2
v -7.2 2.5 7.2
v -6.7 2.5 7.2
v -11.2 2.5 7.1
v -10.6 2.5 7.1
v -10 2.5 7.1
v -9.4 2.5 7.1
v -9.2 2.5 7.1
v -8.6 2.5 7.1
v -7.2 2.5 7.1
v -6.6 2.5 7.1

# faces
f 3/2/1 2/2/1 1/2/1
f 4/2/1 2/2/1 3/2/1
f 5/2/1 3/2/1 1/2/1
f 5/1/1 4/1/1 3/1/1
f 6/2/1 2/2/1 4/2/1
f 6/1/1 4/1/1 5/1/1
f 7/2/1 5/2/1 1/2/1
f 7/2/1 6/2/1 5/2/1
f 8/2/1 2/2/1 6/2/1
f 8/2/1 6/2/1 7/2/1
f 11/1/1 10/1/1 9/1/1
f 12/1/1 10/1/1 11/1/1
f 15/2/1 14/2/1 13/2/1
f 16/2/1 14/2/1 15/2/1
f 17/2/1 15/2/1 13/2/1
f 18/1/1 16/1/1 15/1/1
f 18/2/1 15/2/1 17/2/1
f 19/2/1 14/2/1 16/2/1
f 19/1/1 16/1/1 18/1/1
f 20/2/1 14/2/1 19/2/1
f 23/1/1 22/1/1 21/1/1
f 24/1/1 22/1/1 23/1/1
f 29/1/1 27/1/1 26/1/1
f 29/2/1 26/2/1 25/2/1
f 30/2/1 28/2/1 27/2/1
f 30/1/1 27/1/1 29/1/1
f 31/2/1 29/2/1 25/2/1
f 31/2/1 30/2/1 29/2/1
f 32/2/1 28/2/1 30/2/1
f 32/2/1 30/2/1 31/2/1
f 35/1/1 34/1/1 33/1/1
f 36/1/1 34/1/1 35/1/1
f 41/2/1 38/2/1 37/2/1
f 41/1/1 39/1/1 38/1/1
f 42/2/1 40/2/1 39/2/1
f 42/1/1 39/1/1 41/1/1
f 43/2/1 41/2/1 37/2/1
f 43/2/1 42/2/1 41/2/1
f 44/2/1 40/2/1 42/2/1
f 44/2/1 42/2/1 43/2/1
f 49/2/1 46/2/1 45/2/1
f 50/1/1 47/1/1 46/1/1
f 50/2/1 46/2/1 49/2/1
f 51/2/1 48/2/1 47/2/1
f 51/1/1 47/1/1 50/1/1
f 52/2/1 48/2/1 51/2/1
f 57/2/1 54/2/1 53/2/1
f 58/1/1 55/1/1 54/1/1
f 58/2/1 54/2/1 57/2/1
f 59/2/1 56/2/1 55/2/1
f 59/1/1 55/1/1 58/1/1
f 60/2/1 56/2/1 59/2/1
f 63/2/1 62/2/1 61/2/1
f 64/2/1 62/2/1 63/2/1
f 65/2/1 63/2/1 61/2/1
f 66/1/1 64/1/1 63/1/1
f 66/2/1 63/2/1 65/2/1
f 67/2/1 62/2/1 64/2/1
f 67/1/1 64/1/1 66/1/1
f 68/2/1 62/2/1 67/2/1
f 71/1/1 70/1/1 69/1/1
f 72/1/1 70/1/1 71/1/1
f 77/2/1 74/2/1 73/2/1
f 78/1/1 75/1/1 74/1/1
f 78/2/1 74/2/1 77/2/1
f 79/2/1 76/2/1 75/2/1
f 79/1/1 75/1/1 78/1/1
f 80/2/1 76/2/1 79/2/1
f 85/2/1 82/2/1 81/2/1
f 86/1/1 83/1/1 82/1/1
f 86/2/1 82/2/1 85/2/1
f 87/2/1 84/2/1 83/2/1
f 87/1/1 83/1/1 86/1/1
f 88/2/1 84/2/1 87/2/1
f 91/1/1 90/1/1 89/1/1
f 92/1/1 90/1/1 91/1/1
f 95/1/1 94/1/1 93/1/1
f 96/1/1 94/1/1 95/1/1
f 101/2/1 98/2/1 97/2/1
f 102/1/1 99/1/1 98/1/1
f 102/2/1 98/2/1 101/2/1
f 103/2/1 100/2/1 99/2/1
f 103/1/1 99/1/1 102/1/1
f 104/2/1 100/2/1 103/2/1
f 105/1/2 106/1/2 107/1/2
f 107/1/2 106/1/2 108/1/2
f 109/2/2 110/2/2 111/2/2
f 111/2/2 110/2/2 112/2/2
f 109/2/2 111/2/2 113/2/2
f 111/1/2 112/1/2 114/1/2
f 113/2/2 111/2/2 114/2/2
f 112/2/2 110/2/2 115/2/2
f 114/1/2 112/1/2 115/1/2
f 115/2/2 110/2/2 116/2/2
f 117/2/2 118/2/2 121/2/2
f 118/1/2 119/1/2 121/1/2
f 119/2/2 120/2/2 122/2/2
f 121/1/2 119/1/2 122/1/2
f 117/2/2 121/2/2 123/2/2
f 121/2/2 122/2/2 123/2/2
f 122/2/2 120/2/2 124/2/2
f 123/2/2 122/2/2 124/2/2
f 125/1/2 126/1/2 127/1/2
f 127/1/2 126/1/2 128/1/2
f 129/1/2 130/1/2 131/1/2
f 131/1/2 130/1/2 132/1/2
f 133/2/2 134/2/2 135/2/2
f 135/2/2 134/2/2 136/2/2
f 133/2/2 135/2/2 137/2/2
f 135/1/2 136/1/2 137/1/2
f 136/2/2 134/2/2 138/2/2
f 137/1/2 136/1/2 138/1/2
f 133/2/2 137/2/2 139/2/2
f 137/2/2 138/2/2 139/2/2
f 138/2/2 134/2/2 140/2/2
f 139/2/2 138/2/2 140/2/2
f 141/2/2 142/2/2 145/2/2
f 142/1/2 143/1/2 146/1/2
f 145/2/2 142/2/2 146/2/2
f 143/2/2 144/2/2 147/2/2
f 146/1/2 143/1/2 147/1/2
f 147/2/2 144/2/2 148/2/2
f 149/1/2 150/1/2 152/1/2
f 152/1/2 150/1/2 153/1/2
f 151/2/2 152/2/2 156/2/2
f 152/1/2 153/1/2 157/1/2
f 156/2/2 152/2/2 157/2/2
f 153/1/2 154/1/2 157/1/2
f 154/2/2 155/2/2 158/2/2
f 157/1/2 154/1/2 158/1/2
f 158/2/2 155/2/2 159/2/2
f 160/1/2 161/1/2 162/1/2
f 162/1/2 161/1/2 163/1/2
f 164/2/2 165/2/2 169/2/2
f 169/2/2 165/2/2 170/2/2
f 166/1/2 167/1/2 171/1/2
f 167/2/2 168/2/2 172/2/2
f 171/1/2 167/1/2 172/1/2
f 172/2/2 168/2/2 173/2/2
f 174/2/2 175/2/2 176/2/2
f 176/2/2 175/2/2 177/2/2
f 174/2/2 176/2/2 178/2/2
f 176/1/2 177/1/2 179/1/2
f 178/2/2 176/2/2 179/2/2
f 179/1/2 177/1/2 180/1/2
f 177/2/2 175/2/2 181/2/2
f 180/1/2 177/1/2 181/1/2
f 181/2/2 175/2/2 182/2/2
f 179/1/2 180/1/2 183/1/2
f 183/1/2 180/1/2 184/1/2
f 185/1/2 186/1/2 187/1/2
f 187/1/2 186/1/2 188/1/2
f 189/2/2 190/2/2 193/2/2
f 190/1/2 191/1/2 194/1/2
f 193/2/2 190/2/2 194/2/2
f 191/2/2 192/2/2 195/2/2
f 194/1/2 191/1/2 195/1/2
f 195/2/2 192/2/2 196/2/2
f 197/2/2 198/2/2 201/2/2
f 198/1/2 199/1/2 202/1/2
f 201/2/2 198/2/2 202/2/2
f 199/2/2 200/2/2 203/2/2
f 202/1/2 199/1/2 203/1/2
f 203/2/2 200/2/2 204/2/2
f 205/2/2 206/2/2 209/2/2
f 206/1/2 207/1/2 209/1/2
f 207/2/2 208/2/2 210/2/2
f 209/1/2 207/1/2 210/1/2
f 205/2/2 209/2/2 211/2/2
f 209/2/2 210/2/2 211/2/2
f 210/2/2 208/2/2 212/2/2
f 211/2/2 210/2/2 212/2/2
f 215/2/3 214/2/3 213/2/3
f 216/2/3 214/2/3 215/2/3
f 217/2/3 215/2/3 213/2/3
f 217/1/3 216/1/3 215/1/3
f 218/1/3 216/1/3 217/1/3
f 219/1/3 216/1/3 218/1/3
f 220/2/3 214/2/3 216/2/3
f 220/1/3 216/1/3 219/1/3
f 221/2/3 217/2/3 213/2/3
f 221/2/3 218/2/3 217/2/3
f 222/2/3 218/2/3 221/2/3
f 223/2/3 220/2/3 219/2/3
f 224/2/3 214/2/3 220/2/3
f 224/2/3 220/2/3 223/2/3
f 226/2/3 218/2/3 222/2/3
f 227/2/3 223/2/3 219/2/3
f 229/2/3 226/2/3 225/2/3
f 230/1/3 219/1/3 218/1/3
f 230/2/3 226/2/3 229/2/3
f 230/2/3 218/2/3 226/2/3
f 231/2/3 228/2/3 227/2/3
f 231/1/3 219/1/3 230/1/3
f 231/2/3 227/2/3 219/2/3
f 232/2/3 228/2/3 231/2/3
f 233/2/3 229/2/3 225/2/3
f 233/1/3 230/1/3 229/1/3
f 233/1/3 232/1/3 231/1/3
f 233/1/3 231/1/3 230/1/3
f 234/2/3 228/2/3 232/2/3
f 234/1/3 232/1/3 233/1/3
f 235/2/3 233/2/3 225/2/3
f 235/2/3 234/2/3 233/2/3
f 236/2/3 228/2/3 234/2/3
f 236/2/3 234/2/3 235/2/3
f 239/2/3 238/2/3 237/2/3
f 240/2/3 238/2/3 239/2/3
f 242/2/3 239/2/3 237/2/3
f 243/2/3 242/2/3 241/2/3
f 244/1/3 240/1/3 239/1/3
f 244/2/3 242/2/3 243/2/3
f 244/2/3 239/2/3 242/2/3
f 245/1/3 244/1/3 243/1/3
f 245/1/3 240/1/3 244/1/3
f 246/2/3 238/2/3 240/2/3
f 246/1/3 240/1/3 245/1/3
f 248/2/3 243/2/3 241/2/3
f 249/2/3 246/2/3 245/2/3
f 250/2/3 238/2/3 246/2/3
f 250/2/3 246/2/3 249/2/3
f 251/2/3 248/2/3 247/2/3
f 252/1/3 245/1/3 243/1/3
f 252/2/3 248/2/3 251/2/3
f 252/2/3 243/2/3 248/2/3
f 253/1/3 252/1/3 251/1/3
f 253/1/3 245/1/3 252/1/3
f 254/2/3 249/2/3 245/2/3
f 254/1/3 245/1/3 253/1/3
f 256/2/3 251/2/3 247/2/3
f 257/2/3 254/2/3 253/2/3
f 258/2/3 249/2/3 254/2/3
f 258/2/3 254/2/3 257/2/3
f 259/2/3 256/2/3 255/2/3
f 260/1/3 253/1/3 251/1/3
f 260/2/3 256/2/3 259/2/3
f 260/2/3 251/2/3 256/2/3
f 261/1/3 260/1/3 259/1/3
f 261/1/3 253/1/3 260/1/3
f 262/2/3 257/2/3 253/2/3
f 262/1/3 253/1/3 261/1/3
f 263/2/3 262/2/3 261/2/3
f 264/2/3 257/2/3 262/2/3
f 264/2/3 262/2/3 263/2/3
f 265/2/3 263/2/3 261/2/3
f 267/1/3 261/1/3 259/1/3
f 267/2/3 266/2/3 265/2/3
f 267/2/3 265/2/3 261/2/3
f 268/2/3 266/2/3 267/2/3
f 269/2/3 259/2/3 255/2/3
f 269/1/3 267/1/3 259/1/3
f 269/1/3 268/1/3 267/1/3
f 270/1/3 268/1/3 269/1/3
f 271/2/3 269/2/3 255/2/3
f 271/2/3 270/2/3 269/2/3
f 272/2/3 270/2/3 271/2/3
f 273/2/3 266/2/3 268/2/3
f 275/2/3 273/2/3 268/2/3
f 275/2/3 274/2/3 273/2/3
f 275/1/3 268/1/3 270/1/3
f 276/2/3 274/2/3 275/2/3
f 277/2/3 270/2/3 272/2/3
f 277/1/3 275/1/3 270/1/3
f 277/1/3 276/1/3 275/1/3
f 278/1/3 276/1/3 277/1/3
f 279/2/3 277/2/3 272/2/3
f 279/2/3 278/2/3 277/2/3
f 280/2/3 278/2/3 279/2/3
f 281/2/3 274/2/3 276/2/3
f 283/2/3 281/2/3 276/2/3
f 283/2/3 282/2/3 281/2/3
f 283/1/3 276/1/3 278/1/3
f 284/2/3 282/2/3 283/2/3
f 285/2/3 278/2/3 280/2/3
f 285/1/3 283/1/3 278/1/3
f 285/1/3 284/1/3 283/1/3
f 286/1/3 284/1/3 285/1/3
f 287/2/3 285/2/3 280/2/3
f 287/2/3 286/2/3 285/2/3
f 288/2/3 286/2/3 287/2/3
f 289/1/3 284/1/3 286/1/3
f 289/2/3 286/2/3 288/2/3
f 290/2/3 282/2/3 284/2/3
f 290/1/3 284/1/3 289/1/3
f 291/2/3 289/2/3 288/2/3
f 291/2/3 290/2/3 289/2/3
f 292/2/3 282/2/3 290/2/3
f 292/2/3 290/2/3 291/2/3
f 296/1/3 294/1/3 293/1/3
f 297/1/3 296/1/3 295/1/3
f 298/1/3 296/1/3 297/1/3
f 299/1/3 294/1/3 296/1/3
f 299/1/3 296/1/3 298/1/3
f 302/1/3 301/1/3 300/1/3
f 303/1/3 301/1/3 302/1/3
f 306/1/3 305/1/3 304/1/3
f 307/1/3 305/1/3 306/1/3
f 310/1/3 309/1/3 308/1/3
f 311/1/3 309/1/3 310/1/3
f 314/1/3 313/1/3 312/1/3
f 315/1/3 313/1/3 314/1/3
f 318/1/3 317/1/3 316/1/3
f 319/1/3 317/1/3 318/1/3
f 320/1/4 321/1/4 322/1/4
f 322/1/4 321/1/4 323/1/4
f 324/1/4 325/1/4 326/1/4
f 326/1/4 325/1/4 327/1/4
f 328/1/4 329/1/4 330/1/4
f 330/1/4 329/1/4 331/1/4
f 332/2/4 333/2/4 335/2/4
f 334/2/4 335/2/4 336/2/4
f 336/2/4 335/2/4 337/2/4
f 335/2/4 333/2/4 338/2/4
f 337/2/4 335/2/4 338/2/4
f 339/2/4 340/2/4 341/2/4
f 341/2/4 340/2/4 342/2/4
f 343/2/4 344/2/4 345/2/4
f 345/2/4 344/2/4 346/2/4
f 347/2/4 348/2/4 349/2/4
f 349/2/4 348/2/4 350/2/4
f 347/2/4 349/2/4 351/2/4
f 349/1/4 350/1/4 351/1/4
f 351/1/4 350/1/4 352/1/4
f 352/1/4 350/1/4 353/1/4
f 350/2/4 348/2/4 354/2/4
f 353/1/4 350/1/4 354/1/4
f 347/2/4 351/2/4 355/2/4
f 351/2/4 352/2/4 355/2/4
f 355/2/4 352/2/4 356/2/4
f 353/2/4 354/2/4 357/2/4
f 354/2/4 348/2/4 358/2/4
f 357/2/4 354/2/4 358/2/4
f 356/2/4 352/2/4 360/2/4
f 353/2/4 357/2/4 361/2/4
f 359/2/4 360/2/4 363/2/4
f 352/1/4 353/1/4 364/1/4
f 363/2/4 360/2/4 364/2/4
f 360/2/4 352/2/4 364/2/4
f 361/2/4 362/2/4 365/2/4
f 364/1/4 353/1/4 365/1/4
f 353/2/4 361/2/4 365/2/4
f 365/2/4 362/2/4 366/2/4
f 359/2/4 363/2/4 367/2/4
f 363/1/4 364/1/4 367/1/4
f 365/1/4 366/1/4 367/1/4
f 364/1/4 365/1/4 367/1/4
f 366/2/4 362/2/4 368/2/4
f 367/1/4 366/1/4 368/1/4
f 359/2/4 367/2/4 369/2/4
f 367/2/4 368/2/4 369/2/4
f 368/2/4 362/2/4 370/2/4
f 369/2/4 368/2/4 370/2/4
f 371/2/4 372/2/4 373/2/4
f 373/2/4 372/2/4 374/2/4
f 371/2/4 373/2/4 376/2/4
f 375/2/4 376/2/4 377/2/4
f 373/1/4 374/1/4 378/1/4
f 377/2/4 376/2/4 378/2/4
f 376/2/4 373/2/4 378/2/4
f 377/1/4 378/1/4 379/1/4
f 378/1/4 374/1/4 379/1/4
f 374/2/4 372/2/4 380/2/4
f 379/1/4 374/1/4 380/1/4
f 375/2/4 377/2/4 382/2/4
f 379/2/4 380/2/4 383/2/4
f 380/2/4 372/2/4 384/2/4
f 383/2/4 380/2/4 384/2/4
f 381/2/4 382/2/4 385/2/4
f 377/1/4 379/1/4 386/1/4
f 385/2/4 382/2/4 386/2/4
f 382/2/4 377/2/4 386/2/4
f 385/1/4 386/1/4 387/1/4
f 386/1/4 379/1/4 387/1/4
f 379/2/4 383/2/4 388/2/4
f 387/1/4 379/1/4 388/1/4
f 381/2/4 385/2/4 390/2/4
f 387/2/4 388/2/4 391/2/4
f 388/2/4 383/2/4 392/2/4
f 391/2/4 388/2/4 392/2/4
f 389/2/4 390/2/4 393/2/4
f 385/1/4 387/1/4 394/1/4
f 393/2/4 390/2/4 394/2/4
f 390/2/4 385/2/4 394/2/4
f 393/1/4 394/1/4 395/1/4
f 394/1/4 387/1/4 395/1/4
f 387/2/4 391/2/4 396/2/4
f 395/1/4 387/1/4 396/1/4
f 395/2/4 396/2/4 397/2/4
f 396/2/4 391/2/4 398/2/4
f 397/2/4 396/2/4 398/2/4
f 395/2/4 397/2/4 399/2/4
f 393/1/4 395/1/4 401/1/4
f 399/2/4 400/2/4 401/2/4
f 395/2/4 399/2/4 401/2/4
f 401/2/4 400/2/4 402/2/4
f 389/2/4 393/2/4 403/2/4
f 393/1/4 401/1/4 403/1/4
f 401/1/4 402/1/4 403/1/4
f 403/1/4 402/1/4 404/1/4
f 389/2/4 403/2/4 405/2/4
f 403/2/4 404/2/4 405/2/4
f 405/2/4 404/2/4 406/2/4
f 402/2/4 400/2/4 407/2/4
f 402/2/4 407/2/4 409/2/4
f 407/2/4 408/2/4 409/2/4
f 404/1/4 402/1/4 409/1/4
f 409/2/4 408/2/4 410/2/4
f 406/2/4 404/2/4 411/2/4
f 404/1/4 409/1/4 411/1/4
f 409/1/4 410/1/4 411/1/4
f 411/1/4 410/1/4 412/1/4
f 406/2/4 411/2/4 413/2/4
f 411/2/4 412/2/4 413/2/4
f 413/2/4 412/2/4 414/2/4
f 410/2/4 408/2/4 415/2/4
f 410/2/4 415/2/4 417/2/4
f 415/2/4 416/2/4 417/2/4
f 412/1/4 410/1/4 417/1/4
f 417/2/4 416/2/4 418/2/4
f 414/2/4 412/2/4 419/2/4
f 412/1/4 417/1/4 419/1/4
f 417/1/4 418/1/4 419/1/4
f 419/1/4 418/1/4 420/1/4
f 414/2/4 419/2/4 421/2/4
f 419/2/4 420/2/4 421/2/4
f 421/2/4 420/2/4 422/2/4
f 420/1/4 418/1/4 423/1/4
f 422/2/4 420/2/4 423/2/4
f 418/2/4 416/2/4 424/2/4
f 423/1/4 418/1/4 424/1/4
f 422/2/4 423/2/4 425/2/4
f 423/2/4 424/2/4 425/2/4
f 424/2/4 416/2/4 426/2/4
f 425/2/4 424/2/4 426/2/4
f 433/2/5 428/2/5 427/2/5
f 434/2/5 428/2/5 433/2/5
f 435/2/5 430/2/5 429/2/5
f 436/2/5 430/2/5 435/2/5
f 437/2/5 432/2/5 431/2/5
f 438/2/5 432/2/5 437/2/5
f 443/2/5 440/2/5 439/2/5
f 444/2/5 440/2/5 443/2/5
f 445/2/5 442/2/5 441/2/5
f 446/2/5 442/2/5 445/2/5
f 447/2/5 442/2/5 446/2/5
f 449/1/5 447/1/5 446/1/5
f 450/1/5 444/1/5 443/1/5
f 451/1/5 444/1/5 450/1/5
f 452/1/5 449/1/5 448/1/5
f 453/1/5 447/1/5 449/1/5
f 453/1/5 449/1/5 452/1/5
f 454/2/5 451/2/5 450/2/5
f 455/2/5 451/2/5 454/2/5
f 456/2/5 453/2/5 452/2/5
f 457/2/5 453/2/5 456/2/5
f 460/1/5 459/1/5 458/1/5
f 461/1/5 459/1/5 460/1/5
f 464/2/5 463/2/5 462/2/5
f 465/2/5 463/2/5 464/2/5
f 466/1/5 465/1/5 464/1/5
f 467/1/5 465/1/5 466/1/5
f 468/2/5 467/2/5 466/2/5
f 469/2/5 467/2/5 468/2/5
f 474/2/5 471/2/5 470/2/5
f 475/2/5 471/2/5 474/2/5
f 476/2/5 473/2/5 472/2/5
f 477/2/5 473/2/5 476/2/5
f 478/1/5 475/1/5 474/1/5
f 479/1/5 475/1/5 478/1/5
f 480/1/5 477/1/5 476/1/5
f 481/1/5 477/1/5 480/1/5
f 482/2/5 479/2/5 478/2/5
f 483/2/5 479/2/5 482/2/5
f 484/2/5 481/2/5 480/2/5
f 485/2/5 481/2/5 484/2/5
f 488/1/5 487/1/5 486/1/5
f 489/1/5 487/1/5 488/1/5
f 492/1/5 491/1/5 490/1/5
f 493/1/5 491/1/5 492/1/5
f 498/2/5 495/2/5 494/2/5
f 499/2/5 495/2/5 498/2/5
f 500/2/5 497/2/5 496/2/5
f 501/2/5 497/2/5 500/2/5
f 502/1/5 499/1/5 498/1/5
f 503/1/5 499/1/5 502/1/5
f 504/1/5 501/1/5 500/1/5
f 505/1/5 501/1/5 504/1/5
f 506/2/5 503/2/5 502/2/5
f 507/2/5 503/2/5 506/2/5
f 508/2/5 505/2/5 504/2/5
f 509/2/5 505/2/5 508/2/5
f 514/1/5 511/1/5 510/1/5
f 515/1/5 511/1/5 514/1/5
f 516/1/5 513/1/5 512/1/5
f 517/1/5 513/1/5 516/1/5
f 518/2/6 519/2/6 522/2/6
f 522/2/6 519/2/6 523/2/6
f 520/2/6 521/2/6 524/2/6
f 524/2/6 521/2/6 525/2/6
f 526/1/6 527/1/6 528/1/6
f 528/1/6 527/1/6 529/1/6
f 530/2/6 531/2/6 532/2/6
f 532/2/6 531/2/6 533/2/6
f 532/1/6 533/1/6 534/1/6
f 534/1/6 533/1/6 535/1/6
f 535/1/6 533/1/6 536/1/6
f 535/2/6 536/2/6 537/2/6
f 537/2/6 536/2/6 538/2/6
f 541/1/6 542/1/6 543/1/6
f 543/1/6 542/1/6 544/1/6
f 539/1/6 540/1/6 545/1/6
f 545/1/6 540/1/6 546/1/6
f 547/1/6 548/1/6 549/1/6
f 549/1/6 548/1/6 550/1/6
f 551/2/6 552/2/6 555/2/6
f 555/2/6 552/2/6 556/2/6
f 553/2/6 554/2/6 557/2/6
f 557/2/6 554/2/6 558/2/6
f 559/1/6 560/1/6 561/1/6
f 561/1/6 560/1/6 562/1/6
f 557/1/6 558/1/6 563/1/6
f 563/1/6 558/1/6 564/1/6
f 561/2/6 562/2/6 565/2/6
f 565/2/6 562/2/6 566/2/6
f 563/2/6 564/2/6 567/2/6
f 567/2/6 564/2/6 568/2/6
f 569/2/6 570/2/6 571/2/6
f 571/2/6 570/2/6 572/2/6
f 571/1/6 572/1/6 573/1/6
f 573/1/6 572/1/6 574/1/6
f 573/2/6 574/2/6 575/2/6
f 575/2/6 574/2/6 576/2/6
f 577/2/6 578/2/6 581/2/6
f 581/2/6 578/2/6 582/2/6
f 579/2/6 580/2/6 583/2/6
f 583/2/6 580/2/6 584/2/6
f 581/1/6 582/1/6 585/1/6
f 585/1/6 582/1/6 586/1/6
f 583/1/6 584/1/6 587/1/6
f 587/1/6 584/1/6 588/1/6
f 585/2/6 586/2/6 589/2/6
f 589/2/6 586/2/6 590/2/6
f 587/2/6 588/2/6 591/2/6
f 591/2/6 588/2/6 592/2/6
f 593/2/6 594/2/6 601/2/6
f 601/2/6 594/2/6 602/2/6
f 595/2/6 596/2/6 603/2/6
f 603/2/6 596/2/6 604/2/6
f 597/2/6 598/2/6 605/2/6
f 605/2/6 598/2/6 606/2/6
f 599/2/6 600/2/6 607/2/6
f 607/2/6 600/2/6 608/2/6
f 593/2/6 601/2/6 609/2/6
f 601/1/6 602/1/6 609/1/6
f 602/2/6 594/2/6 610/2/6
f 609/1/6 602/1/6 610/1/6
f 595/2/6 603/2/6 611/2/6
f 603/1/6 604/1/6 611/1/6
f 604/2/6 596/2/6 612/2/6
f 611/1/6 604/1/6 612/1/6
f 605/1/6 606/1/6 613/1/6
f 597/2/6 605/2/6 613/2/6
f 613/1/6 606/1/6 614/1/6
f 607/1/6 608/1/6 615/1/6
f 608/2/6 600/2/6 616/2/6
f 615/1/6 608/1/6 616/1/6
f 593/2/6 609/2/6 617/2/6
f 609/2/6 610/2/6 617/2/6
f 610/2/6 594/2/6 618/2/6
f 617/2/6 610/2/6 618/2/6
f 595/2/6 611/2/6 619/2/6
f 611/2/6 612/2/6 619/2/6
f 612/2/6 596/2/6 620/2/6
f 619/2/6 612/2/6 620/2/6
f 613/2/6 614/2/6 621/2/6
f 597/2/6 613/2/6 621/2/6
f 621/2/6 614/2/6 622/2/6
f 615/2/6 616/2/6 623/2/6
f 616/2/6 600/2/6 624/2/6
f 623/2/6 616/2/6 624/2/6
