# MagicaVoxel @ Ephtracy

# group
o 

# material
mtllib libro.mtl
usemtl palette

# normals
vn -1 0 0
vn 1 0 0
vn 0 0 1
vn 0 0 -1
vn 0 -1 0
vn 0 1 0

# texcoords
vt 0.298828 0.5
vt 0.380859 0.5
vt 0.384766 0.5
vt 0.400391 0.5
vt 0.525391 0.5
vt 0.544922 0.5
vt 0.556641 0.5
vt 0.853516 0.5

# verts
v 7.1 0.2 8.3
v 7.1 0.2 8.1
v 7.1 3.1 8.3
v 7.1 3.1 8.1
v 7.5 0.4 8.5
v 7.5 0.4 8.3
v 7.5 2.9 8.5
v 7.5 2.9 8.3
v 7.7 0.4 8.6
v 7.7 0.4 8.5
v 7.7 2.9 8.6
v 7.7 2.9 8.5
v 7.9 0.4 8.7
v 7.9 0.4 8.6
v 7.9 2.9 8.7
v 7.9 2.9 8.6
v 9 0.2 8.1
v 9 0.2 8
v 9 0.3 8.1
v 9 3 8.1
v 9 3.1 8.1
v 9 3.1 8
v 9.2 1.5 8.9
v 9.2 1.5 8.7
v 9.2 1.6 8.9
v 9.2 1.6 8.7
v 9.3 1.6 8.9
v 9.3 1.6 8.7
v 9.3 1.7 8.9
v 9.3 1.7 8.7
v 9.4 1.4 8.9
v 9.4 1.4 8.7
v 9.4 1.6 8.9
v 9.4 1.6 8.7
v 9.4 1.7 8.9
v 9.4 1.7 8.7
v 9.4 2.9 8.7
v 9.4 2.9 8.3
v 9.4 3 8.3
v 9.4 3.1 8.9
v 9.4 3.1 8.3
v 9.6 1.5 8.9
v 9.6 1.5 8.7
v 9.6 1.6 8.9
v 9.6 1.6 8.7
v 9.3 1.5 8.9
v 9.3 1.5 8.7
v 9.3 1.6 8.9
v 9.3 1.6 8.7
v 9.5 1.4 8.9
v 9.5 1.4 8.7
v 9.5 1.6 8.9
v 9.5 1.6 8.7
v 9.5 1.7 8.9
v 9.5 1.7 8.7
v 9.5 2.9 8.7
v 9.5 2.9 8.3
v 9.5 3 8.3
v 9.5 3.1 8.9
v 9.5 3.1 8.3
v 9.6 1.6 8.9
v 9.6 1.6 8.7
v 9.6 1.7 8.9
v 9.6 1.7 8.7
v 9.7 0.2 8.1
v 9.7 0.2 8
v 9.7 0.3 8.1
v 9.7 1.5 8.9
v 9.7 1.5 8.7
v 9.7 1.6 8.9
v 9.7 1.6 8.7
v 9.7 3 8.1
v 9.7 3.1 8.1
v 9.7 3.1 8
v 10.8 0.4 8.7
v 10.8 0.4 8.6
v 10.8 2.9 8.7
v 10.8 2.9 8.6
v 11 0.4 8.6
v 11 0.4 8.5
v 11 2.9 8.6
v 11 2.9 8.5
v 11.2 0.4 8.5
v 11.2 0.4 8.3
v 11.2 2.9 8.5
v 11.2 2.9 8.3
v 11.6 0.2 8.3
v 11.6 0.2 8.1
v 11.6 3.1 8.3
v 11.6 3.1 8.1
v 9.2 1.5 8.9
v 9.2 1.6 8.9
v 9.3 1.5 8.9
v 9.3 1.6 8.9
v 9.3 1.7 8.9
v 9.4 1.4 8.9
v 9.4 1.6 8.9
v 9.4 1.7 8.9
v 9.4 3.1 8.9
v 9.5 1.4 8.9
v 9.5 1.6 8.9
v 9.5 1.7 8.9
v 9.5 3.1 8.9
v 9.6 1.5 8.9
v 9.6 1.6 8.9
v 9.6 1.7 8.9
v 9.7 1.5 8.9
v 9.7 1.6 8.9
v 7.9 0.4 8.7
v 7.9 2.9 8.7
v 8 0.7 8.7
v 8 0.8 8.7
v 8 0.9 8.7
v 8 1 8.7
v 8 1.1 8.7
v 8 1.2 8.7
v 8 1.3 8.7
v 8 1.4 8.7
v 8 1.5 8.7
v 8 1.6 8.7
v 8 2 8.7
v 8 2.1 8.7
v 8 2.2 8.7
v 8 2.3 8.7
v 8 2.4 8.7
v 8 2.5 8.7
v 8 2.6 8.7
v 8 2.7 8.7
v 8.3 1.3 8.7
v 8.3 1.4 8.7
v 8.4 1.3 8.7
v 8.4 1.4 8.7
v 8.4 2.2 8.7
v 8.4 2.3 8.7
v 8.5 0.9 8.7
v 8.5 1 8.7
v 8.5 2.2 8.7
v 8.5 2.3 8.7
v 8.5 2.6 8.7
v 8.5 2.7 8.7
v 8.6 0.9 8.7
v 8.6 1 8.7
v 8.6 2.6 8.7
v 8.6 2.7 8.7
v 8.7 0.7 8.7
v 8.7 0.8 8.7
v 8.7 1.5 8.7
v 8.7 1.6 8.7
v 8.8 0.7 8.7
v 8.8 0.8 8.7
v 8.8 1.1 8.7
v 8.8 1.2 8.7
v 8.8 1.5 8.7
v 8.8 1.6 8.7
v 8.8 2 8.7
v 8.8 2.1 8.7
v 8.8 2.4 8.7
v 8.8 2.5 8.7
v 8.9 1.1 8.7
v 8.9 1.2 8.7
v 8.9 2.4 8.7
v 8.9 2.5 8.7
v 9.1 0.7 8.7
v 9.1 0.8 8.7
v 9.1 0.9 8.7
v 9.1 1 8.7
v 9.1 1.1 8.7
v 9.1 1.2 8.7
v 9.1 1.3 8.7
v 9.1 1.4 8.7
v 9.1 1.5 8.7
v 9.1 1.6 8.7
v 9.2 1.5 8.7
v 9.2 1.6 8.7
v 9.2 2.2 8.7
v 9.2 2.3 8.7
v 9.2 2.4 8.7
v 9.2 2.5 8.7
v 9.2 2.6 8.7
v 9.2 2.7 8.7
v 9.3 0.4 8.7
v 9.3 1.5 8.7
v 9.3 1.6 8.7
v 9.3 1.7 8.7
v 9.3 2.9 8.7
v 9.4 0.4 8.7
v 9.4 1.4 8.7
v 9.4 1.6 8.7
v 9.4 1.7 8.7
v 9.4 2.9 8.7
v 9.5 1.4 8.7
v 9.5 1.6 8.7
v 9.5 1.7 8.7
v 9.5 2.9 8.7
v 9.6 1.5 8.7
v 9.6 1.6 8.7
v 9.6 1.7 8.7
v 9.7 0.7 8.7
v 9.7 1.1 8.7
v 9.7 1.3 8.7
v 9.7 1.5 8.7
v 9.7 1.6 8.7
v 9.7 1.8 8.7
v 9.7 2.2 8.7
v 9.7 2.8 8.7
v 9.8 0.6 8.7
v 9.8 0.7 8.7
v 9.8 1.1 8.7
v 9.8 1.3 8.7
v 9.8 1.5 8.7
v 9.8 1.6 8.7
v 9.8 1.8 8.7
v 9.8 1.9 8.7
v 9.8 2.3 8.7
v 9.8 2.8 8.7
v 9.9 1.8 8.7
v 9.9 1.9 8.7
v 9.9 2 8.7
v 10 1.8 8.7
v 10 1.9 8.7
v 10 2 8.7
v 10.1 0.6 8.7
v 10.1 0.7 8.7
v 10.1 1.1 8.7
v 10.1 1.3 8.7
v 10.1 1.5 8.7
v 10.1 1.6 8.7
v 10.1 1.8 8.7
v 10.1 1.9 8.7
v 10.1 2.6 8.7
v 10.1 2.7 8.7
v 10.2 0.7 8.7
v 10.2 1.1 8.7
v 10.2 1.3 8.7
v 10.2 1.8 8.7
v 10.2 2.2 8.7
v 10.2 2.3 8.7
v 10.2 2.5 8.7
v 10.2 2.6 8.7
v 10.2 2.7 8.7
v 10.2 2.8 8.7
v 10.3 2.4 8.7
v 10.3 2.5 8.7
v 10.3 2.7 8.7
v 10.3 2.8 8.7
v 10.4 2.4 8.7
v 10.4 2.5 8.7
v 10.4 2.7 8.7
v 10.4 2.8 8.7
v 10.5 2.5 8.7
v 10.5 2.6 8.7
v 10.5 2.7 8.7
v 10.5 2.8 8.7
v 10.6 2.6 8.7
v 10.6 2.7 8.7
v 10.8 0.4 8.7
v 10.8 2.9 8.7
v 7.7 0.4 8.6
v 7.7 2.9 8.6
v 7.9 0.4 8.6
v 7.9 2.9 8.6
v 10.8 0.4 8.6
v 10.8 2.9 8.6
v 11 0.4 8.6
v 11 2.9 8.6
v 7.5 0.4 8.5
v 7.5 2.9 8.5
v 7.7 0.4 8.5
v 7.7 2.9 8.5
v 11 0.4 8.5
v 11 2.9 8.5
v 11.2 0.4 8.5
v 11.2 2.9 8.5
v 7.1 0.2 8.3
v 7.1 3.1 8.3
v 7.2 0.3 8.3
v 7.2 3 8.3
v 7.4 0.4 8.3
v 7.4 2.9 8.3
v 7.5 0.4 8.3
v 7.5 2.9 8.3
v 9.3 0.4 8.3
v 9.3 2.9 8.3
v 9.4 0.4 8.3
v 9.4 2.9 8.3
v 9.4 3 8.3
v 9.4 3.1 8.3
v 9.5 2.9 8.3
v 9.5 3 8.3
v 9.5 3.1 8.3
v 11.2 0.4 8.3
v 11.2 2.9 8.3
v 11.3 0.4 8.3
v 11.3 2.9 8.3
v 11.5 0.3 8.3
v 11.5 3 8.3
v 11.6 0.2 8.3
v 11.6 3.1 8.3
v 7.1 0.2 8.1
v 7.1 3.1 8.1
v 7.2 0.3 8.1
v 7.2 3 8.1
v 9 0.2 8.1
v 9 0.3 8.1
v 9 3 8.1
v 9 3.1 8.1
v 9.7 0.2 8.1
v 9.7 0.3 8.1
v 9.7 3 8.1
v 9.7 3.1 8.1
v 11.5 0.3 8.1
v 11.5 3 8.1
v 11.6 0.2 8.1
v 11.6 3.1 8.1
v 9 0.2 8
v 9 3.1 8
v 9.7 0.2 8
v 9.7 3.1 8
v 7.1 0.2 8.3
v 11.6 0.2 8.3
v 7.1 0.2 8.1
v 9 0.2 8.1
v 9.7 0.2 8.1
v 11.6 0.2 8.1
v 9 0.2 8
v 9.7 0.2 8
v 7.9 0.4 8.7
v 9.3 0.4 8.7
v 9.4 0.4 8.7
v 10.8 0.4 8.7
v 7.7 0.4 8.6
v 7.9 0.4 8.6
v 10.8 0.4 8.6
v 11 0.4 8.6
v 7.5 0.4 8.5
v 7.7 0.4 8.5
v 11 0.4 8.5
v 11.2 0.4 8.5
v 7.5 0.4 8.3
v 9.3 0.4 8.3
v 9.4 0.4 8.3
v 11.2 0.4 8.3
v 9.4 1.4 8.9
v 9.5 1.4 8.9
v 9.4 1.4 8.7
v 9.5 1.4 8.7
v 9.2 1.5 8.9
v 9.3 1.5 8.9
v 9.6 1.5 8.9
v 9.7 1.5 8.9
v 9.2 1.5 8.7
v 9.3 1.5 8.7
v 9.6 1.5 8.7
v 9.7 1.5 8.7
v 9.3 1.6 8.9
v 9.4 1.6 8.9
v 9.5 1.6 8.9
v 9.6 1.6 8.9
v 9.3 1.6 8.7
v 9.4 1.6 8.7
v 9.5 1.6 8.7
v 9.6 1.6 8.7
v 9.2 1.6 8.9
v 9.3 1.6 8.9
v 9.6 1.6 8.9
v 9.7 1.6 8.9
v 9.2 1.6 8.7
v 9.3 1.6 8.7
v 9.6 1.6 8.7
v 9.7 1.6 8.7
v 9.3 1.7 8.9
v 9.4 1.7 8.9
v 9.5 1.7 8.9
v 9.6 1.7 8.9
v 9.3 1.7 8.7
v 9.4 1.7 8.7
v 9.5 1.7 8.7
v 9.6 1.7 8.7
v 7.9 2.9 8.7
v 9.3 2.9 8.7
v 9.4 2.9 8.7
v 9.5 2.9 8.7
v 10.8 2.9 8.7
v 7.7 2.9 8.6
v 7.9 2.9 8.6
v 10.8 2.9 8.6
v 11 2.9 8.6
v 7.5 2.9 8.5
v 7.7 2.9 8.5
v 11 2.9 8.5
v 11.2 2.9 8.5
v 7.5 2.9 8.3
v 9.3 2.9 8.3
v 9.4 2.9 8.3
v 9.5 2.9 8.3
v 11.2 2.9 8.3
v 9.4 3.1 8.9
v 9.5 3.1 8.9
v 7.1 3.1 8.3
v 9.4 3.1 8.3
v 9.5 3.1 8.3
v 11.6 3.1 8.3
v 7.1 3.1 8.1
v 9 3.1 8.1
v 9.7 3.1 8.1
v 11.6 3.1 8.1
v 9 3.1 8
v 9.7 3.1 8

# faces
f 3/3/1 2/3/1 1/3/1
f 4/3/1 2/3/1 3/3/1
f 7/7/1 6/7/1 5/7/1
f 8/7/1 6/7/1 7/7/1
f 11/7/1 10/7/1 9/7/1
f 12/7/1 10/7/1 11/7/1
f 15/7/1 14/7/1 13/7/1
f 16/7/1 14/7/1 15/7/1
f 19/3/1 18/3/1 17/3/1
f 20/3/1 18/3/1 19/3/1
f 21/3/1 18/3/1 20/3/1
f 22/3/1 18/3/1 21/3/1
f 25/1/1 24/1/1 23/1/1
f 26/1/1 24/1/1 25/1/1
f 29/1/1 28/1/1 27/1/1
f 30/1/1 28/1/1 29/1/1
f 33/1/1 32/1/1 31/1/1
f 34/1/1 32/1/1 33/1/1
f 37/1/1 36/1/1 35/1/1
f 39/1/1 38/1/1 37/1/1
f 40/1/1 37/1/1 35/1/1
f 40/1/1 39/1/1 37/1/1
f 41/1/1 39/1/1 40/1/1
f 44/1/1 43/1/1 42/1/1
f 45/1/1 43/1/1 44/1/1
f 46/1/2 47/1/2 48/1/2
f 48/1/2 47/1/2 49/1/2
f 50/1/2 51/1/2 52/1/2
f 52/1/2 51/1/2 53/1/2
f 54/1/2 55/1/2 56/1/2
f 56/1/2 57/1/2 58/1/2
f 54/1/2 56/1/2 59/1/2
f 56/1/2 58/1/2 59/1/2
f 59/1/2 58/1/2 60/1/2
f 61/1/2 62/1/2 63/1/2
f 63/1/2 62/1/2 64/1/2
f 65/3/2 66/3/2 67/3/2
f 68/1/2 69/1/2 70/1/2
f 70/1/2 69/1/2 71/1/2
f 67/3/2 66/3/2 72/3/2
f 72/3/2 66/3/2 73/3/2
f 73/3/2 66/3/2 74/3/2
f 75/7/2 76/7/2 77/7/2
f 77/7/2 76/7/2 78/7/2
f 79/7/2 80/7/2 81/7/2
f 81/7/2 80/7/2 82/7/2
f 83/7/2 84/7/2 85/7/2
f 85/7/2 84/7/2 86/7/2
f 87/3/2 88/3/2 89/3/2
f 89/3/2 88/3/2 90/3/2
f 93/1/3 92/1/3 91/1/3
f 94/1/3 92/1/3 93/1/3
f 97/1/3 95/1/3 94/1/3
f 98/1/3 95/1/3 97/1/3
f 100/1/3 97/1/3 96/1/3
f 100/1/3 99/1/3 98/1/3
f 100/1/3 98/1/3 97/1/3
f 101/1/3 99/1/3 100/1/3
f 102/1/3 99/1/3 101/1/3
f 103/1/3 99/1/3 102/1/3
f 105/1/3 102/1/3 101/1/3
f 106/1/3 102/1/3 105/1/3
f 107/1/3 105/1/3 104/1/3
f 108/1/3 105/1/3 107/1/3
f 111/7/3 110/7/3 109/7/3
f 112/7/3 110/7/3 111/7/3
f 113/7/3 110/7/3 112/7/3
f 114/7/3 110/7/3 113/7/3
f 115/7/3 110/7/3 114/7/3
f 116/7/3 110/7/3 115/7/3
f 117/7/3 110/7/3 116/7/3
f 118/7/3 110/7/3 117/7/3
f 119/7/3 110/7/3 118/7/3
f 120/7/3 110/7/3 119/7/3
f 121/7/3 110/7/3 120/7/3
f 122/7/3 110/7/3 121/7/3
f 123/7/3 110/7/3 122/7/3
f 124/7/3 110/7/3 123/7/3
f 125/7/3 110/7/3 124/7/3
f 126/7/3 110/7/3 125/7/3
f 127/7/3 110/7/3 126/7/3
f 128/7/3 110/7/3 127/7/3
f 129/7/3 117/7/3 116/7/3
f 129/6/3 118/6/3 117/6/3
f 130/7/3 119/7/3 118/7/3
f 130/6/3 118/6/3 129/6/3
f 131/7/3 129/7/3 116/7/3
f 131/7/3 130/7/3 129/7/3
f 132/7/3 119/7/3 130/7/3
f 132/7/3 130/7/3 131/7/3
f 133/7/3 123/7/3 122/7/3
f 133/6/3 124/6/3 123/6/3
f 134/7/3 125/7/3 124/7/3
f 134/6/3 124/6/3 133/6/3
f 135/7/3 113/7/3 112/7/3
f 135/6/3 114/6/3 113/6/3
f 136/7/3 115/7/3 114/7/3
f 136/6/3 114/6/3 135/6/3
f 137/7/3 134/7/3 133/7/3
f 137/7/3 133/7/3 122/7/3
f 138/7/3 125/7/3 134/7/3
f 138/7/3 134/7/3 137/7/3
f 139/6/3 128/6/3 127/6/3
f 139/7/3 127/7/3 126/7/3
f 140/7/3 110/7/3 128/7/3
f 140/6/3 128/6/3 139/6/3
f 141/7/3 135/7/3 112/7/3
f 141/7/3 136/7/3 135/7/3
f 142/7/3 115/7/3 136/7/3
f 142/7/3 136/7/3 141/7/3
f 143/7/3 139/7/3 126/7/3
f 143/7/3 140/7/3 139/7/3
f 144/7/3 110/7/3 140/7/3
f 144/7/3 140/7/3 143/7/3
f 145/7/3 111/7/3 109/7/3
f 145/6/3 112/6/3 111/6/3
f 146/7/3 141/7/3 112/7/3
f 146/6/3 112/6/3 145/6/3
f 147/6/3 120/6/3 119/6/3
f 147/7/3 119/7/3 132/7/3
f 148/7/3 121/7/3 120/7/3
f 148/6/3 120/6/3 147/6/3
f 149/7/3 145/7/3 109/7/3
f 149/7/3 146/7/3 145/7/3
f 150/7/3 141/7/3 146/7/3
f 150/7/3 146/7/3 149/7/3
f 151/6/3 116/6/3 115/6/3
f 151/7/3 115/7/3 142/7/3
f 152/7/3 131/7/3 116/7/3
f 152/6/3 116/6/3 151/6/3
f 153/7/3 147/7/3 132/7/3
f 153/7/3 148/7/3 147/7/3
f 154/7/3 121/7/3 148/7/3
f 154/7/3 148/7/3 153/7/3
f 155/6/3 122/6/3 121/6/3
f 155/7/3 121/7/3 154/7/3
f 156/7/3 137/7/3 122/7/3
f 156/6/3 122/6/3 155/6/3
f 157/7/3 125/7/3 138/7/3
f 157/6/3 126/6/3 125/6/3
f 158/7/3 143/7/3 126/7/3
f 158/6/3 126/6/3 157/6/3
f 159/7/3 151/7/3 142/7/3
f 159/7/3 152/7/3 151/7/3
f 160/7/3 131/7/3 152/7/3
f 160/7/3 152/7/3 159/7/3
f 161/7/3 157/7/3 138/7/3
f 161/7/3 158/7/3 157/7/3
f 162/7/3 143/7/3 158/7/3
f 162/7/3 158/7/3 161/7/3
f 163/6/3 150/6/3 149/6/3
f 163/7/3 149/7/3 109/7/3
f 164/7/3 141/7/3 150/7/3
f 164/6/3 150/6/3 163/6/3
f 165/6/3 142/6/3 141/6/3
f 165/7/3 141/7/3 164/7/3
f 166/7/3 159/7/3 142/7/3
f 166/6/3 142/6/3 165/6/3
f 167/6/3 160/6/3 159/6/3
f 167/7/3 159/7/3 166/7/3
f 168/7/3 131/7/3 160/7/3
f 168/6/3 160/6/3 167/6/3
f 169/6/3 132/6/3 131/6/3
f 169/7/3 131/7/3 168/7/3
f 170/7/3 153/7/3 132/7/3
f 170/6/3 132/6/3 169/6/3
f 171/6/3 154/6/3 153/6/3
f 171/7/3 153/7/3 170/7/3
f 172/7/3 155/7/3 154/7/3
f 172/6/3 154/6/3 171/6/3
f 172/7/3 156/7/3 155/7/3
f 173/7/3 171/7/3 170/7/3
f 173/7/3 169/7/3 168/7/3
f 173/7/3 172/7/3 171/7/3
f 173/7/3 167/7/3 166/7/3
f 173/7/3 164/7/3 163/7/3
f 173/7/3 168/7/3 167/7/3
f 173/7/3 166/7/3 165/7/3
f 173/7/3 170/7/3 169/7/3
f 173/7/3 165/7/3 164/7/3
f 174/7/3 156/7/3 172/7/3
f 174/7/3 172/7/3 173/7/3
f 175/6/3 138/6/3 137/6/3
f 175/7/3 156/7/3 174/7/3
f 175/7/3 137/7/3 156/7/3
f 176/7/3 161/7/3 138/7/3
f 176/6/3 138/6/3 175/6/3
f 177/6/3 162/6/3 161/6/3
f 177/7/3 161/7/3 176/7/3
f 178/7/3 143/7/3 162/7/3
f 178/6/3 162/6/3 177/6/3
f 179/6/3 144/6/3 143/6/3
f 179/7/3 143/7/3 178/7/3
f 180/7/3 110/7/3 144/7/3
f 180/6/3 144/6/3 179/6/3
f 181/7/3 173/7/3 163/7/3
f 181/7/3 163/7/3 109/7/3
f 182/7/3 173/7/3 181/7/3
f 183/7/3 179/7/3 178/7/3
f 183/7/3 178/7/3 177/7/3
f 183/7/3 180/7/3 179/7/3
f 183/7/3 177/7/3 176/7/3
f 183/7/3 175/7/3 174/7/3
f 183/7/3 176/7/3 175/7/3
f 184/7/3 180/7/3 183/7/3
f 185/7/3 110/7/3 180/7/3
f 185/7/3 180/7/3 184/7/3
f 186/5/3 182/5/3 181/5/3
f 186/5/3 183/5/3 182/5/3
f 187/5/3 183/5/3 186/5/3
f 188/5/3 183/5/3 187/5/3
f 189/5/3 185/5/3 184/5/3
f 190/5/3 185/5/3 189/5/3
f 191/7/3 187/7/3 186/7/3
f 195/7/3 192/7/3 191/7/3
f 196/7/3 192/7/3 195/7/3
f 197/7/3 194/7/3 193/7/3
f 198/7/3 191/7/3 186/7/3
f 198/7/3 195/7/3 191/7/3
f 199/7/3 195/7/3 198/7/3
f 200/7/3 195/7/3 199/7/3
f 201/7/3 195/7/3 200/7/3
f 202/7/3 197/7/3 196/7/3
f 203/7/3 194/7/3 197/7/3
f 203/7/3 197/7/3 202/7/3
f 204/7/3 194/7/3 203/7/3
f 205/7/3 194/7/3 204/7/3
f 206/7/3 198/7/3 186/7/3
f 207/8/3 199/8/3 198/8/3
f 207/7/3 198/7/3 206/7/3
f 208/7/3 200/7/3 199/7/3
f 208/8/3 199/8/3 207/8/3
f 209/8/3 201/8/3 200/8/3
f 209/7/3 200/7/3 208/7/3
f 209/8/3 202/8/3 201/8/3
f 209/8/3 203/8/3 202/8/3
f 210/8/3 203/8/3 209/8/3
f 211/8/3 203/8/3 210/8/3
f 212/7/3 204/7/3 203/7/3
f 212/8/3 203/8/3 211/8/3
f 213/7/3 204/7/3 212/7/3
f 214/8/3 205/8/3 204/8/3
f 215/7/3 194/7/3 205/7/3
f 215/8/3 205/8/3 214/8/3
f 216/7/3 212/7/3 211/7/3
f 216/8/3 213/8/3 212/8/3
f 217/7/3 204/7/3 213/7/3
f 217/8/3 213/8/3 216/8/3
f 218/7/3 204/7/3 217/7/3
f 219/7/3 216/7/3 211/7/3
f 219/7/3 217/7/3 216/7/3
f 220/8/3 218/8/3 217/8/3
f 220/7/3 217/7/3 219/7/3
f 221/7/3 204/7/3 218/7/3
f 221/8/3 218/8/3 220/8/3
f 222/7/3 206/7/3 186/7/3
f 222/8/3 207/8/3 206/8/3
f 223/7/3 208/7/3 207/7/3
f 223/8/3 207/8/3 222/8/3
f 223/7/3 209/7/3 208/7/3
f 223/7/3 210/7/3 209/7/3
f 224/7/3 210/7/3 223/7/3
f 225/7/3 210/7/3 224/7/3
f 226/8/3 211/8/3 210/8/3
f 226/7/3 210/7/3 225/7/3
f 227/7/3 219/7/3 211/7/3
f 227/8/3 211/8/3 226/8/3
f 228/8/3 220/8/3 219/8/3
f 228/7/3 219/7/3 227/7/3
f 229/7/3 221/7/3 220/7/3
f 229/8/3 220/8/3 228/8/3
f 230/7/3 215/7/3 214/7/3
f 231/7/3 215/7/3 230/7/3
f 232/7/3 223/7/3 222/7/3
f 232/8/3 224/8/3 223/8/3
f 233/7/3 225/7/3 224/7/3
f 233/8/3 224/8/3 232/8/3
f 234/8/3 227/8/3 226/8/3
f 234/7/3 225/7/3 233/7/3
f 234/8/3 228/8/3 227/8/3
f 234/8/3 226/8/3 225/8/3
f 235/7/3 229/7/3 228/7/3
f 235/8/3 228/8/3 234/8/3
f 236/8/3 214/8/3 204/8/3
f 236/7/3 229/7/3 235/7/3
f 236/7/3 204/7/3 221/7/3
f 236/7/3 221/7/3 229/7/3
f 237/7/3 230/7/3 214/7/3
f 237/8/3 214/8/3 236/8/3
f 238/7/3 230/7/3 237/7/3
f 239/4/3 231/4/3 230/4/3
f 239/7/3 230/7/3 238/7/3
f 240/7/3 215/7/3 231/7/3
f 240/4/3 231/4/3 239/4/3
f 241/7/3 194/7/3 215/7/3
f 241/7/3 215/7/3 240/7/3
f 242/7/3 233/7/3 232/7/3
f 242/7/3 235/7/3 234/7/3
f 242/7/3 238/7/3 237/7/3
f 242/7/3 237/7/3 236/7/3
f 242/7/3 236/7/3 235/7/3
f 242/7/3 234/7/3 233/7/3
f 243/4/3 241/4/3 240/4/3
f 243/7/3 238/7/3 242/7/3
f 243/4/3 240/4/3 239/4/3
f 243/4/3 239/4/3 238/4/3
f 244/4/3 241/4/3 243/4/3
f 245/7/3 194/7/3 241/7/3
f 245/4/3 241/4/3 244/4/3
f 246/4/3 244/4/3 243/4/3
f 246/7/3 242/7/3 232/7/3
f 246/4/3 243/4/3 242/4/3
f 247/4/3 244/4/3 246/4/3
f 248/7/3 245/7/3 244/7/3
f 248/4/3 244/4/3 247/4/3
f 249/7/3 194/7/3 245/7/3
f 249/7/3 245/7/3 248/7/3
f 250/4/3 248/4/3 247/4/3
f 250/7/3 247/7/3 246/7/3
f 250/4/3 249/4/3 248/4/3
f 251/4/3 249/4/3 250/4/3
f 252/4/3 249/4/3 251/4/3
f 253/7/3 194/7/3 249/7/3
f 253/4/3 249/4/3 252/4/3
f 254/4/3 252/4/3 251/4/3
f 254/7/3 251/7/3 250/7/3
f 255/7/3 253/7/3 252/7/3
f 255/4/3 252/4/3 254/4/3
f 256/7/3 222/7/3 186/7/3
f 256/7/3 246/7/3 232/7/3
f 256/7/3 255/7/3 254/7/3
f 256/7/3 254/7/3 250/7/3
f 256/7/3 250/7/3 246/7/3
f 256/7/3 232/7/3 222/7/3
f 257/7/3 253/7/3 255/7/3
f 257/7/3 255/7/3 256/7/3
f 257/7/3 194/7/3 253/7/3
f 260/7/3 259/7/3 258/7/3
f 261/7/3 259/7/3 260/7/3
f 264/7/3 263/7/3 262/7/3
f 265/7/3 263/7/3 264/7/3
f 268/7/3 267/7/3 266/7/3
f 269/7/3 267/7/3 268/7/3
f 272/7/3 271/7/3 270/7/3
f 273/7/3 271/7/3 272/7/3
f 276/3/3 275/3/3 274/3/3
f 277/3/3 275/3/3 276/3/3
f 278/2/3 277/2/3 276/2/3
f 279/2/3 277/2/3 278/2/3
f 280/2/3 278/2/3 276/2/3
f 280/7/3 279/7/3 278/7/3
f 281/2/3 277/2/3 279/2/3
f 281/7/3 279/7/3 280/7/3
f 282/2/3 280/2/3 276/2/3
f 283/2/3 277/2/3 281/2/3
f 284/2/3 282/2/3 276/2/3
f 285/2/3 277/2/3 283/2/3
f 286/3/3 275/3/3 277/3/3
f 286/2/3 277/2/3 285/2/3
f 287/3/3 275/3/3 286/3/3
f 291/2/3 284/2/3 276/2/3
f 292/2/3 289/2/3 288/2/3
f 293/2/3 291/2/3 276/2/3
f 293/7/3 292/7/3 291/7/3
f 294/2/3 289/2/3 292/2/3
f 294/7/3 292/7/3 293/7/3
f 295/3/3 276/3/3 274/3/3
f 295/2/3 293/2/3 276/2/3
f 295/2/3 294/2/3 293/2/3
f 296/2/3 289/2/3 294/2/3
f 296/2/3 294/2/3 295/2/3
f 296/3/3 290/3/3 289/3/3
f 297/3/3 295/3/3 274/3/3
f 297/3/3 296/3/3 295/3/3
f 298/3/3 290/3/3 296/3/3
f 298/3/3 296/3/3 297/3/3
f 299/3/4 300/3/4 301/3/4
f 301/3/4 300/3/4 302/3/4
f 299/3/4 301/3/4 303/3/4
f 301/2/4 302/2/4 304/2/4
f 303/3/4 301/3/4 304/3/4
f 302/3/4 300/3/4 305/3/4
f 304/2/4 302/2/4 305/2/4
f 305/3/4 300/3/4 306/3/4
f 307/3/4 308/3/4 311/3/4
f 308/2/4 309/2/4 311/2/4
f 309/3/4 310/3/4 312/3/4
f 311/2/4 309/2/4 312/2/4
f 307/3/4 311/3/4 313/3/4
f 311/3/4 312/3/4 313/3/4
f 312/3/4 310/3/4 314/3/4
f 313/3/4 312/3/4 314/3/4
f 315/3/4 316/3/4 317/3/4
f 317/3/4 316/3/4 318/3/4
f 321/3/5 320/3/5 319/3/5
f 322/3/5 320/3/5 321/3/5
f 323/3/5 320/3/5 322/3/5
f 324/3/5 320/3/5 323/3/5
f 325/3/5 323/3/5 322/3/5
f 326/3/5 323/3/5 325/3/5
f 332/7/5 328/7/5 327/7/5
f 333/7/5 330/7/5 329/7/5
f 336/7/5 332/7/5 331/7/5
f 337/7/5 334/7/5 333/7/5
f 339/7/5 336/7/5 335/7/5
f 340/5/5 329/5/5 328/5/5
f 340/7/5 336/7/5 339/7/5
f 340/7/5 328/7/5 332/7/5
f 340/7/5 332/7/5 336/7/5
f 341/7/5 338/7/5 337/7/5
f 341/5/5 329/5/5 340/5/5
f 341/7/5 337/7/5 333/7/5
f 341/7/5 333/7/5 329/7/5
f 342/7/5 338/7/5 341/7/5
f 345/1/5 344/1/5 343/1/5
f 346/1/5 344/1/5 345/1/5
f 351/1/5 348/1/5 347/1/5
f 352/1/5 348/1/5 351/1/5
f 353/1/5 350/1/5 349/1/5
f 354/1/5 350/1/5 353/1/5
f 359/1/5 356/1/5 355/1/5
f 360/1/5 356/1/5 359/1/5
f 361/1/5 358/1/5 357/1/5
f 362/1/5 358/1/5 361/1/5
f 363/1/6 364/1/6 367/1/6
f 367/1/6 364/1/6 368/1/6
f 365/1/6 366/1/6 369/1/6
f 369/1/6 366/1/6 370/1/6
f 371/1/6 372/1/6 375/1/6
f 375/1/6 372/1/6 376/1/6
f 373/1/6 374/1/6 377/1/6
f 377/1/6 374/1/6 378/1/6
f 379/7/6 380/7/6 385/7/6
f 382/7/6 383/7/6 386/7/6
f 384/7/6 385/7/6 389/7/6
f 386/7/6 387/7/6 390/7/6
f 388/7/6 389/7/6 392/7/6
f 380/5/6 381/5/6 393/5/6
f 392/7/6 389/7/6 393/7/6
f 385/7/6 380/7/6 393/7/6
f 389/7/6 385/7/6 393/7/6
f 393/5/6 381/5/6 394/5/6
f 390/7/6 391/7/6 395/7/6
f 386/7/6 390/7/6 395/7/6
f 382/7/6 386/7/6 395/7/6
f 395/7/6 391/7/6 396/7/6
f 397/1/6 398/1/6 400/1/6
f 400/1/6 398/1/6 401/1/6
f 399/3/6 400/3/6 403/3/6
f 401/3/6 402/3/6 403/3/6
f 400/3/6 401/3/6 403/3/6
f 403/3/6 402/3/6 404/3/6
f 404/3/6 402/3/6 405/3/6
f 405/3/6 402/3/6 406/3/6
f 404/3/6 405/3/6 407/3/6
f 407/3/6 405/3/6 408/3/6
