# MagicaVoxel @ Ephtracy

# group
o 

# material
mtllib monitor.mtl
usemtl palette

# normals
vn -1 0 0
vn 1 0 0
vn 0 0 1
vn 0 0 -1
vn 0 -1 0
vn 0 1 0

# texcoords
vt 0.443359 0.5
vt 0.544922 0.5
vt 0.576172 0.5
vt 0.580078 0.5
vt 0.634766 0.5
vt 0.947266 0.5

# verts
v 3.8 5.4 -8.5
v 3.8 5.4 -8.7
v 3.8 7.8 -8.5
v 3.8 7.8 -8.7
v 4 7.8 -8.5
v 4 7.8 -8.7
v 4 8.1 -8.5
v 4 8.1 -8.7
v 4.1 5.1 -8.5
v 4.1 5.1 -8.7
v 4.1 5.4 -8.5
v 4.1 5.4 -8.7
v 4.1 5.4 -9
v 4.1 7.8 -8.7
v 4.1 7.8 -9
v 5.2 3.9 -8.3
v 5.2 3.9 -8.9
v 5.2 4.1 -8.3
v 5.2 4.1 -8.9
v 5.6 4.1 -8.5
v 5.6 4.1 -8.7
v 5.6 5.1 -8.5
v 5.6 5.1 -8.7
v 6.6 4.1 -8.5
v 6.6 4.1 -8.7
v 6.6 5.1 -8.5
v 6.6 5.1 -8.7
v 7 3.9 -8.3
v 7 3.9 -8.9
v 7 4.1 -8.3
v 7 4.1 -8.9
v 8.1 5.1 -8.5
v 8.1 5.1 -8.7
v 8.1 5.4 -8.5
v 8.1 5.4 -8.7
v 8.1 5.4 -9
v 8.1 7.8 -8.7
v 8.1 7.8 -9
v 8.2 7.8 -8.5
v 8.2 7.8 -8.7
v 8.2 8.1 -8.5
v 8.2 8.1 -8.7
v 8.4 5.4 -8.5
v 8.4 5.4 -8.7
v 8.4 7.8 -8.5
v 8.4 7.8 -8.7
v 5.2 3.9 -8.3
v 5.2 4.1 -8.3
v 7 3.9 -8.3
v 7 4.1 -8.3
v 3.8 5.4 -8.5
v 3.8 7.8 -8.5
v 4 7.8 -8.5
v 4 8.1 -8.5
v 4.1 5.1 -8.5
v 4.1 5.4 -8.5
v 4.1 7.8 -8.5
v 4.2 5.6 -8.5
v 4.2 5.7 -8.5
v 4.2 5.8 -8.5
v 4.2 5.9 -8.5
v 4.2 6 -8.5
v 4.2 6.1 -8.5
v 4.2 6.2 -8.5
v 4.2 6.3 -8.5
v 4.2 6.4 -8.5
v 4.2 6.5 -8.5
v 4.2 6.6 -8.5
v 4.2 6.7 -8.5
v 4.2 6.8 -8.5
v 4.2 6.9 -8.5
v 4.2 7 -8.5
v 4.2 7.1 -8.5
v 4.2 7.2 -8.5
v 4.2 7.3 -8.5
v 4.2 7.4 -8.5
v 4.2 7.5 -8.5
v 4.3 5.6 -8.5
v 4.3 5.7 -8.5
v 4.3 5.8 -8.5
v 4.3 5.9 -8.5
v 4.3 6 -8.5
v 4.3 6.1 -8.5
v 4.3 6.2 -8.5
v 4.3 6.3 -8.5
v 4.3 6.4 -8.5
v 4.3 6.5 -8.5
v 4.3 6.6 -8.5
v 4.3 6.7 -8.5
v 4.3 6.8 -8.5
v 4.3 6.9 -8.5
v 4.3 7 -8.5
v 4.3 7.1 -8.5
v 4.3 7.2 -8.5
v 4.3 7.3 -8.5
v 4.3 7.4 -8.5
v 4.3 7.5 -8.5
v 4.4 5.6 -8.5
v 4.4 5.7 -8.5
v 4.4 5.8 -8.5
v 4.4 5.9 -8.5
v 4.4 6.6 -8.5
v 4.4 6.7 -8.5
v 4.4 6.8 -8.5
v 4.4 6.9 -8.5
v 4.4 7 -8.5
v 4.4 7.1 -8.5
v 4.4 7.2 -8.5
v 4.4 7.3 -8.5
v 4.4 7.4 -8.5
v 4.4 7.5 -8.5
v 4.7 6 -8.5
v 4.7 6.1 -8.5
v 4.7 6.2 -8.5
v 4.7 6.3 -8.5
v 4.7 6.4 -8.5
v 4.7 6.5 -8.5
v 4.8 6.8 -8.5
v 4.8 6.9 -8.5
v 4.9 6.8 -8.5
v 4.9 6.9 -8.5
v 5.1 5.8 -8.5
v 5.1 5.9 -8.5
v 5.2 5.8 -8.5
v 5.2 5.9 -8.5
v 5.2 7.2 -8.5
v 5.2 7.3 -8.5
v 5.3 6.2 -8.5
v 5.3 6.3 -8.5
v 5.3 7 -8.5
v 5.3 7.1 -8.5
v 5.4 6.2 -8.5
v 5.4 6.3 -8.5
v 5.4 6.8 -8.5
v 5.4 6.9 -8.5
v 5.4 7 -8.5
v 5.4 7.1 -8.5
v 5.5 6 -8.5
v 5.5 6.1 -8.5
v 5.5 6.8 -8.5
v 5.5 6.9 -8.5
v 5.6 4.1 -8.5
v 5.6 5.1 -8.5
v 5.7 6.6 -8.5
v 5.7 6.7 -8.5
v 5.9 5.6 -8.5
v 5.9 5.7 -8.5
v 5.9 6.2 -8.5
v 5.9 6.3 -8.5
v 5.9 6.4 -8.5
v 5.9 6.5 -8.5
v 5.9 7.4 -8.5
v 5.9 7.5 -8.5
v 6.1 5.8 -8.5
v 6.1 5.9 -8.5
v 6.1 7 -8.5
v 6.1 7.1 -8.5
v 6.2 6.8 -8.5
v 6.2 6.9 -8.5
v 6.2 7.4 -8.5
v 6.2 7.7 -8.5
v 6.3 7.4 -8.5
v 6.3 7.5 -8.5
v 6.3 7.6 -8.5
v 6.3 7.7 -8.5
v 6.4 7.5 -8.5
v 6.4 7.6 -8.5
v 6.6 4.1 -8.5
v 6.6 5.1 -8.5
v 6.6 5.4 -8.5
v 6.6 7.8 -8.5
v 6.8 5.4 -8.5
v 6.8 7.8 -8.5
v 7.2 5.8 -8.5
v 7.2 6.2 -8.5
v 7.2 7.5 -8.5
v 7.2 7.7 -8.5
v 7.3 5.7 -8.5
v 7.3 5.8 -8.5
v 7.3 6.2 -8.5
v 7.3 6.3 -8.5
v 7.3 6.6 -8.5
v 7.3 6.7 -8.5
v 7.3 6.9 -8.5
v 7.3 7.1 -8.5
v 7.3 7.4 -8.5
v 7.3 7.5 -8.5
v 7.3 7.7 -8.5
v 7.4 5.6 -8.5
v 7.4 5.7 -8.5
v 7.4 5.8 -8.5
v 7.4 6.2 -8.5
v 7.4 6.3 -8.5
v 7.4 6.4 -8.5
v 7.4 6.5 -8.5
v 7.4 6.6 -8.5
v 7.4 6.7 -8.5
v 7.4 6.8 -8.5
v 7.4 6.9 -8.5
v 7.4 7.1 -8.5
v 7.4 7.2 -8.5
v 7.4 7.3 -8.5
v 7.4 7.4 -8.5
v 7.4 7.5 -8.5
v 7.5 6.7 -8.5
v 7.5 6.8 -8.5
v 7.5 6.9 -8.5
v 7.5 7.3 -8.5
v 7.5 7.4 -8.5
v 7.5 7.5 -8.5
v 7.6 5.6 -8.5
v 7.6 5.7 -8.5
v 7.6 5.8 -8.5
v 7.6 6.2 -8.5
v 7.6 6.3 -8.5
v 7.6 6.4 -8.5
v 7.6 6.5 -8.5
v 7.6 6.6 -8.5
v 7.6 6.7 -8.5
v 7.6 7 -8.5
v 7.6 7.1 -8.5
v 7.6 7.2 -8.5
v 7.6 7.4 -8.5
v 7.6 7.5 -8.5
v 7.6 7.7 -8.5
v 7.7 5.7 -8.5
v 7.7 5.8 -8.5
v 7.7 5.9 -8.5
v 7.7 6.1 -8.5
v 7.7 6.2 -8.5
v 7.7 6.3 -8.5
v 7.7 6.6 -8.5
v 7.7 6.8 -8.5
v 7.7 7 -8.5
v 7.7 7.1 -8.5
v 7.7 7.5 -8.5
v 7.7 7.7 -8.5
v 7.8 5.8 -8.5
v 7.8 5.9 -8.5
v 7.8 6.1 -8.5
v 7.8 6.2 -8.5
v 8.1 5.1 -8.5
v 8.1 5.4 -8.5
v 8.1 7.8 -8.5
v 8.2 7.8 -8.5
v 8.2 8.1 -8.5
v 8.4 5.4 -8.5
v 8.4 7.8 -8.5
v 3.8 5.4 -8.7
v 3.8 7.8 -8.7
v 4 7.8 -8.7
v 4 8.1 -8.7
v 4.1 5.1 -8.7
v 4.1 5.4 -8.7
v 4.1 7.8 -8.7
v 5.6 4.1 -8.7
v 5.6 5.1 -8.7
v 6.6 4.1 -8.7
v 6.6 5.1 -8.7
v 8.1 5.1 -8.7
v 8.1 5.4 -8.7
v 8.1 7.8 -8.7
v 8.2 7.8 -8.7
v 8.2 8.1 -8.7
v 8.4 5.4 -8.7
v 8.4 7.8 -8.7
v 5.2 3.9 -8.9
v 5.2 4.1 -8.9
v 7 3.9 -8.9
v 7 4.1 -8.9
v 4.1 5.4 -9
v 4.1 7.8 -9
v 8.1 5.4 -9
v 8.1 7.8 -9
v 5.2 3.9 -8.3
v 7 3.9 -8.3
v 5.2 3.9 -8.9
v 7 3.9 -8.9
v 4.1 5.1 -8.5
v 5.6 5.1 -8.5
v 6.6 5.1 -8.5
v 8.1 5.1 -8.5
v 4.1 5.1 -8.7
v 5.6 5.1 -8.7
v 6.6 5.1 -8.7
v 8.1 5.1 -8.7
v 3.8 5.4 -8.5
v 4.1 5.4 -8.5
v 8.1 5.4 -8.5
v 8.4 5.4 -8.5
v 3.8 5.4 -8.7
v 4.1 5.4 -8.7
v 8.1 5.4 -8.7
v 8.4 5.4 -8.7
v 4.1 5.4 -9
v 8.1 5.4 -9
v 5.2 4.1 -8.3
v 7 4.1 -8.3
v 5.6 4.1 -8.5
v 6.6 4.1 -8.5
v 5.6 4.1 -8.7
v 6.6 4.1 -8.7
v 5.2 4.1 -8.9
v 7 4.1 -8.9
v 3.8 7.8 -8.5
v 4 7.8 -8.5
v 8.2 7.8 -8.5
v 8.4 7.8 -8.5
v 3.8 7.8 -8.7
v 4 7.8 -8.7
v 4.1 7.8 -8.7
v 8.1 7.8 -8.7
v 8.2 7.8 -8.7
v 8.4 7.8 -8.7
v 4.1 7.8 -9
v 8.1 7.8 -9
v 4 8.1 -8.5
v 8.2 8.1 -8.5
v 4 8.1 -8.7
v 8.2 8.1 -8.7

# faces
f 3/2/1 2/2/1 1/2/1
f 4/2/1 2/2/1 3/2/1
f 7/2/1 6/2/1 5/2/1
f 8/2/1 6/2/1 7/2/1
f 11/2/1 10/2/1 9/2/1
f 12/2/1 10/2/1 11/2/1
f 14/2/1 13/2/1 12/2/1
f 15/2/1 13/2/1 14/2/1
f 18/2/1 17/2/1 16/2/1
f 19/2/1 17/2/1 18/2/1
f 22/2/1 21/2/1 20/2/1
f 23/2/1 21/2/1 22/2/1
f 24/2/2 25/2/2 26/2/2
f 26/2/2 25/2/2 27/2/2
f 28/2/2 29/2/2 30/2/2
f 30/2/2 29/2/2 31/2/2
f 32/2/2 33/2/2 34/2/2
f 34/2/2 33/2/2 35/2/2
f 35/2/2 36/2/2 37/2/2
f 37/2/2 36/2/2 38/2/2
f 39/2/2 40/2/2 41/2/2
f 41/2/2 40/2/2 42/2/2
f 43/2/2 44/2/2 45/2/2
f 45/2/2 44/2/2 46/2/2
f 49/2/3 48/2/3 47/2/3
f 50/2/3 48/2/3 49/2/3
f 53/2/3 52/2/3 51/2/3
f 56/2/3 53/2/3 51/2/3
f 56/2/3 54/2/3 53/2/3
f 57/2/3 54/2/3 56/2/3
f 58/1/3 57/1/3 56/1/3
f 59/1/3 57/1/3 58/1/3
f 60/1/3 57/1/3 59/1/3
f 61/1/3 57/1/3 60/1/3
f 62/1/3 57/1/3 61/1/3
f 63/1/3 57/1/3 62/1/3
f 64/1/3 57/1/3 63/1/3
f 65/1/3 57/1/3 64/1/3
f 66/1/3 57/1/3 65/1/3
f 67/1/3 57/1/3 66/1/3
f 68/1/3 57/1/3 67/1/3
f 69/1/3 57/1/3 68/1/3
f 70/1/3 57/1/3 69/1/3
f 71/1/3 57/1/3 70/1/3
f 72/1/3 57/1/3 71/1/3
f 73/1/3 57/1/3 72/1/3
f 74/1/3 57/1/3 73/1/3
f 75/1/3 57/1/3 74/1/3
f 76/1/3 57/1/3 75/1/3
f 77/1/3 57/1/3 76/1/3
f 78/1/3 58/1/3 56/1/3
f 78/6/3 59/6/3 58/6/3
f 79/1/3 60/1/3 59/1/3
f 79/6/3 59/6/3 78/6/3
f 80/6/3 61/6/3 60/6/3
f 80/1/3 60/1/3 79/1/3
f 81/1/3 62/1/3 61/1/3
f 81/6/3 61/6/3 80/6/3
f 82/6/3 63/6/3 62/6/3
f 82/1/3 62/1/3 81/1/3
f 83/1/3 64/1/3 63/1/3
f 83/6/3 63/6/3 82/6/3
f 84/6/3 65/6/3 64/6/3
f 84/1/3 64/1/3 83/1/3
f 85/1/3 66/1/3 65/1/3
f 85/6/3 65/6/3 84/6/3
f 86/6/3 67/6/3 66/6/3
f 86/1/3 66/1/3 85/1/3
f 87/1/3 68/1/3 67/1/3
f 87/6/3 67/6/3 86/6/3
f 88/6/3 69/6/3 68/6/3
f 88/1/3 68/1/3 87/1/3
f 89/1/3 70/1/3 69/1/3
f 89/6/3 69/6/3 88/6/3
f 90/6/3 71/6/3 70/6/3
f 90/1/3 70/1/3 89/1/3
f 91/1/3 72/1/3 71/1/3
f 91/6/3 71/6/3 90/6/3
f 92/6/3 73/6/3 72/6/3
f 92/1/3 72/1/3 91/1/3
f 93/1/3 74/1/3 73/1/3
f 93/6/3 73/6/3 92/6/3
f 94/6/3 75/6/3 74/6/3
f 94/1/3 74/1/3 93/1/3
f 95/1/3 76/1/3 75/1/3
f 95/6/3 75/6/3 94/6/3
f 96/6/3 77/6/3 76/6/3
f 96/1/3 76/1/3 95/1/3
f 97/1/3 57/1/3 77/1/3
f 97/6/3 77/6/3 96/6/3
f 98/1/3 96/1/3 95/1/3
f 98/1/3 95/1/3 94/1/3
f 98/1/3 97/1/3 96/1/3
f 98/1/3 94/1/3 93/1/3
f 98/1/3 93/1/3 92/1/3
f 98/1/3 92/1/3 91/1/3
f 98/1/3 91/1/3 90/1/3
f 98/1/3 90/1/3 89/1/3
f 98/1/3 89/1/3 88/1/3
f 98/1/3 88/1/3 87/1/3
f 98/1/3 87/1/3 86/1/3
f 98/1/3 86/1/3 85/1/3
f 98/1/3 85/1/3 84/1/3
f 98/1/3 84/1/3 83/1/3
f 98/1/3 83/1/3 82/1/3
f 98/1/3 82/1/3 81/1/3
f 98/1/3 81/1/3 80/1/3
f 98/1/3 80/1/3 79/1/3
f 98/1/3 79/1/3 78/1/3
f 98/1/3 78/1/3 56/1/3
f 99/1/3 97/1/3 98/1/3
f 100/1/3 97/1/3 99/1/3
f 101/1/3 97/1/3 100/1/3
f 102/1/3 97/1/3 101/1/3
f 103/1/3 97/1/3 102/1/3
f 104/1/3 97/1/3 103/1/3
f 105/1/3 97/1/3 104/1/3
f 106/1/3 97/1/3 105/1/3
f 107/1/3 97/1/3 106/1/3
f 108/1/3 97/1/3 107/1/3
f 109/1/3 97/1/3 108/1/3
f 110/1/3 97/1/3 109/1/3
f 111/1/3 57/1/3 97/1/3
f 111/1/3 97/1/3 110/1/3
f 112/1/3 102/1/3 101/1/3
f 113/1/3 102/1/3 112/1/3
f 114/1/3 102/1/3 113/1/3
f 115/1/3 102/1/3 114/1/3
f 116/1/3 102/1/3 115/1/3
f 117/1/3 102/1/3 116/1/3
f 118/1/3 104/1/3 103/1/3
f 118/3/3 105/3/3 104/3/3
f 119/1/3 106/1/3 105/1/3
f 119/3/3 105/3/3 118/3/3
f 120/1/3 118/1/3 103/1/3
f 120/1/3 119/1/3 118/1/3
f 121/1/3 106/1/3 119/1/3
f 121/1/3 119/1/3 120/1/3
f 122/1/3 100/1/3 99/1/3
f 122/3/3 101/3/3 100/3/3
f 123/1/3 112/1/3 101/1/3
f 123/3/3 101/3/3 122/3/3
f 124/1/3 122/1/3 99/1/3
f 124/1/3 123/1/3 122/1/3
f 125/1/3 112/1/3 123/1/3
f 125/1/3 123/1/3 124/1/3
f 126/1/3 108/1/3 107/1/3
f 126/3/3 109/3/3 108/3/3
f 127/1/3 110/1/3 109/1/3
f 127/3/3 109/3/3 126/3/3
f 128/1/3 114/1/3 113/1/3
f 128/3/3 115/3/3 114/3/3
f 129/1/3 116/1/3 115/1/3
f 129/3/3 115/3/3 128/3/3
f 130/1/3 106/1/3 121/1/3
f 130/3/3 107/3/3 106/3/3
f 131/1/3 126/1/3 107/1/3
f 131/3/3 107/3/3 130/3/3
f 131/1/3 127/1/3 126/1/3
f 132/1/3 129/1/3 128/1/3
f 132/1/3 128/1/3 113/1/3
f 133/1/3 116/1/3 129/1/3
f 133/1/3 129/1/3 132/1/3
f 134/3/3 121/3/3 120/3/3
f 134/1/3 120/1/3 103/1/3
f 135/1/3 130/1/3 121/1/3
f 135/3/3 121/3/3 134/3/3
f 135/1/3 131/1/3 130/1/3
f 136/1/3 131/1/3 135/1/3
f 137/1/3 127/1/3 131/1/3
f 137/1/3 131/1/3 136/1/3
f 138/1/3 112/1/3 125/1/3
f 138/3/3 113/3/3 112/3/3
f 139/1/3 132/1/3 113/1/3
f 139/3/3 113/3/3 138/3/3
f 140/1/3 134/1/3 103/1/3
f 140/1/3 136/1/3 135/1/3
f 140/1/3 135/1/3 134/1/3
f 141/1/3 136/1/3 140/1/3
f 143/2/3 56/2/3 55/2/3
f 144/3/3 103/3/3 102/3/3
f 144/1/3 102/1/3 117/1/3
f 145/1/3 140/1/3 103/1/3
f 145/3/3 103/3/3 144/3/3
f 146/1/3 98/1/3 56/1/3
f 146/3/3 99/3/3 98/3/3
f 147/1/3 124/1/3 99/1/3
f 147/3/3 99/3/3 146/3/3
f 148/1/3 132/1/3 139/1/3
f 148/3/3 133/3/3 132/3/3
f 148/1/3 139/1/3 138/1/3
f 149/1/3 116/1/3 133/1/3
f 149/3/3 133/3/3 148/3/3
f 150/3/3 117/3/3 116/3/3
f 150/1/3 116/1/3 149/1/3
f 151/1/3 145/1/3 144/1/3
f 151/3/3 117/3/3 150/3/3
f 151/1/3 144/1/3 117/1/3
f 152/1/3 127/1/3 137/1/3
f 152/3/3 111/3/3 110/3/3
f 152/1/3 110/1/3 127/1/3
f 153/1/3 57/1/3 111/1/3
f 153/3/3 111/3/3 152/3/3
f 154/1/3 124/1/3 147/1/3
f 154/1/3 147/1/3 146/1/3
f 154/3/3 125/3/3 124/3/3
f 155/1/3 150/1/3 149/1/3
f 155/3/3 125/3/3 154/3/3
f 155/1/3 138/1/3 125/1/3
f 155/1/3 148/1/3 138/1/3
f 155/1/3 149/1/3 148/1/3
f 155/1/3 151/1/3 150/1/3
f 156/1/3 136/1/3 141/1/3
f 156/3/3 137/3/3 136/3/3
f 157/1/3 152/1/3 137/1/3
f 157/3/3 137/3/3 156/3/3
f 157/1/3 153/1/3 152/1/3
f 158/1/3 151/1/3 155/1/3
f 158/1/3 140/1/3 145/1/3
f 158/1/3 155/1/3 154/1/3
f 158/3/3 141/3/3 140/3/3
f 158/1/3 145/1/3 151/1/3
f 159/1/3 157/1/3 156/1/3
f 159/3/3 141/3/3 158/3/3
f 159/1/3 156/1/3 141/1/3
f 160/1/3 153/1/3 157/1/3
f 160/1/3 157/1/3 159/1/3
f 161/1/3 57/1/3 153/1/3
f 161/1/3 153/1/3 160/1/3
f 162/1/3 159/1/3 158/1/3
f 162/1/3 160/1/3 159/1/3
f 162/5/3 161/5/3 160/5/3
f 163/5/3 161/5/3 162/5/3
f 164/5/3 161/5/3 163/5/3
f 165/1/3 57/1/3 161/1/3
f 165/5/3 161/5/3 164/5/3
f 166/5/3 164/5/3 163/5/3
f 166/1/3 163/1/3 162/1/3
f 167/1/3 165/1/3 164/1/3
f 167/5/3 164/5/3 166/5/3
f 168/2/3 143/2/3 142/2/3
f 169/2/3 56/2/3 143/2/3
f 169/2/3 143/2/3 168/2/3
f 170/1/3 158/1/3 154/1/3
f 170/2/3 56/2/3 169/2/3
f 170/1/3 154/1/3 146/1/3
f 170/1/3 167/1/3 166/1/3
f 170/1/3 166/1/3 162/1/3
f 170/1/3 162/1/3 158/1/3
f 170/1/3 146/1/3 56/1/3
f 171/1/3 57/1/3 165/1/3
f 171/1/3 167/1/3 170/1/3
f 171/2/3 54/2/3 57/2/3
f 171/1/3 165/1/3 167/1/3
f 172/2/3 170/2/3 169/2/3
f 172/4/3 171/4/3 170/4/3
f 173/2/3 54/2/3 171/2/3
f 173/4/3 171/4/3 172/4/3
f 174/1/3 173/1/3 172/1/3
f 175/1/3 173/1/3 174/1/3
f 176/1/3 173/1/3 175/1/3
f 177/1/3 173/1/3 176/1/3
f 178/1/3 174/1/3 172/1/3
f 179/3/3 175/3/3 174/3/3
f 179/1/3 174/1/3 178/1/3
f 180/1/3 176/1/3 175/1/3
f 180/3/3 175/3/3 179/3/3
f 181/1/3 176/1/3 180/1/3
f 182/1/3 176/1/3 181/1/3
f 183/1/3 176/1/3 182/1/3
f 184/1/3 176/1/3 183/1/3
f 185/1/3 176/1/3 184/1/3
f 186/1/3 176/1/3 185/1/3
f 187/3/3 177/3/3 176/3/3
f 187/1/3 176/1/3 186/1/3
f 188/1/3 173/1/3 177/1/3
f 188/3/3 177/3/3 187/3/3
f 189/1/3 178/1/3 172/1/3
f 190/3/3 179/3/3 178/3/3
f 190/1/3 178/1/3 189/1/3
f 191/1/3 180/1/3 179/1/3
f 191/3/3 179/3/3 190/3/3
f 192/3/3 181/3/3 180/3/3
f 192/1/3 180/1/3 191/1/3
f 193/1/3 182/1/3 181/1/3
f 193/3/3 181/3/3 192/3/3
f 194/1/3 182/1/3 193/1/3
f 195/1/3 182/1/3 194/1/3
f 196/3/3 183/3/3 182/3/3
f 196/1/3 182/1/3 195/1/3
f 197/1/3 184/1/3 183/1/3
f 197/3/3 183/3/3 196/3/3
f 198/1/3 184/1/3 197/1/3
f 199/3/3 185/3/3 184/3/3
f 199/1/3 184/1/3 198/1/3
f 200/1/3 186/1/3 185/1/3
f 200/3/3 185/3/3 199/3/3
f 201/1/3 186/1/3 200/1/3
f 202/1/3 186/1/3 201/1/3
f 203/3/3 187/3/3 186/3/3
f 203/1/3 186/1/3 202/1/3
f 204/1/3 188/1/3 187/1/3
f 204/3/3 187/3/3 203/3/3
f 205/1/3 198/1/3 197/1/3
f 205/1/3 197/1/3 196/1/3
f 206/3/3 199/3/3 198/3/3
f 206/1/3 198/1/3 205/1/3
f 207/1/3 200/1/3 199/1/3
f 207/3/3 199/3/3 206/3/3
f 208/1/3 202/1/3 201/1/3
f 208/3/3 203/3/3 202/3/3
f 209/1/3 204/1/3 203/1/3
f 209/3/3 203/3/3 208/3/3
f 210/1/3 188/1/3 204/1/3
f 210/1/3 204/1/3 209/1/3
f 211/1/3 189/1/3 172/1/3
f 211/3/3 190/3/3 189/3/3
f 212/1/3 191/1/3 190/1/3
f 212/3/3 190/3/3 211/3/3
f 212/1/3 192/1/3 191/1/3
f 212/1/3 193/1/3 192/1/3
f 213/1/3 193/1/3 212/1/3
f 214/1/3 193/1/3 213/1/3
f 215/3/3 194/3/3 193/3/3
f 215/1/3 193/1/3 214/1/3
f 216/1/3 195/1/3 194/1/3
f 216/3/3 194/3/3 215/3/3
f 217/3/3 196/3/3 195/3/3
f 217/1/3 195/1/3 216/1/3
f 218/1/3 205/1/3 196/1/3
f 218/3/3 196/3/3 217/3/3
f 219/3/3 206/3/3 205/3/3
f 219/1/3 205/1/3 218/1/3
f 220/1/3 200/1/3 207/1/3
f 220/1/3 207/1/3 206/1/3
f 221/3/3 201/3/3 200/3/3
f 221/1/3 200/1/3 220/1/3
f 222/1/3 209/1/3 208/1/3
f 222/3/3 201/3/3 221/3/3
f 222/1/3 208/1/3 201/1/3
f 223/3/3 210/3/3 209/3/3
f 223/1/3 209/1/3 222/1/3
f 224/1/3 188/1/3 210/1/3
f 224/3/3 210/3/3 223/3/3
f 225/1/3 173/1/3 188/1/3
f 225/1/3 188/1/3 224/1/3
f 226/3/3 213/3/3 212/3/3
f 226/1/3 212/1/3 211/1/3
f 227/1/3 214/1/3 213/1/3
f 227/3/3 213/3/3 226/3/3
f 228/1/3 214/1/3 227/1/3
f 229/1/3 214/1/3 228/1/3
f 230/3/3 215/3/3 214/3/3
f 230/1/3 214/1/3 229/1/3
f 231/1/3 217/1/3 216/1/3
f 231/3/3 215/3/3 230/3/3
f 231/1/3 216/1/3 215/1/3
f 231/1/3 218/1/3 217/1/3
f 232/3/3 219/3/3 218/3/3
f 232/1/3 218/1/3 231/1/3
f 233/3/3 206/3/3 219/3/3
f 233/3/3 219/3/3 232/3/3
f 233/1/3 220/1/3 206/1/3
f 234/3/3 221/3/3 220/3/3
f 234/1/3 220/1/3 233/1/3
f 235/1/3 224/1/3 223/1/3
f 235/3/3 221/3/3 234/3/3
f 235/1/3 223/1/3 222/1/3
f 235/1/3 222/1/3 221/1/3
f 236/3/3 225/3/3 224/3/3
f 236/1/3 224/1/3 235/1/3
f 237/1/3 173/1/3 225/1/3
f 237/3/3 225/3/3 236/3/3
f 238/3/3 228/3/3 227/3/3
f 238/1/3 227/1/3 226/1/3
f 239/1/3 229/1/3 228/1/3
f 239/3/3 228/3/3 238/3/3
f 240/3/3 230/3/3 229/3/3
f 240/1/3 229/1/3 239/1/3
f 241/1/3 232/1/3 231/1/3
f 241/3/3 230/3/3 240/3/3
f 241/1/3 234/1/3 233/1/3
f 241/1/3 237/1/3 236/1/3
f 241/1/3 231/1/3 230/1/3
f 241/1/3 233/1/3 232/1/3
f 241/1/3 236/1/3 235/1/3
f 241/1/3 235/1/3 234/1/3
f 242/2/3 172/2/3 169/2/3
f 243/1/3 240/1/3 239/1/3
f 243/2/3 172/2/3 242/2/3
f 243/1/3 238/1/3 226/1/3
f 243/1/3 241/1/3 240/1/3
f 243/1/3 211/1/3 172/1/3
f 243/1/3 226/1/3 211/1/3
f 243/1/3 239/1/3 238/1/3
f 244/1/3 237/1/3 241/1/3
f 244/1/3 241/1/3 243/1/3
f 244/2/3 54/2/3 173/2/3
f 244/1/3 173/1/3 237/1/3
f 245/2/3 54/2/3 244/2/3
f 245/2/3 244/2/3 243/2/3
f 246/2/3 54/2/3 245/2/3
f 247/2/3 245/2/3 243/2/3
f 248/2/3 245/2/3 247/2/3
f 249/2/4 250/2/4 251/2/4
f 249/2/4 251/2/4 254/2/4
f 251/2/4 252/2/4 254/2/4
f 254/2/4 252/2/4 255/2/4
f 253/2/4 254/2/4 257/2/4
f 256/2/4 257/2/4 258/2/4
f 257/2/4 254/2/4 259/2/4
f 258/2/4 257/2/4 259/2/4
f 259/2/4 254/2/4 260/2/4
f 260/2/4 254/2/4 261/2/4
f 255/2/4 252/2/4 262/2/4
f 261/2/4 262/2/4 263/2/4
f 262/2/4 252/2/4 263/2/4
f 263/2/4 252/2/4 264/2/4
f 261/2/4 263/2/4 265/2/4
f 265/2/4 263/2/4 266/2/4
f 267/2/4 268/2/4 269/2/4
f 269/2/4 268/2/4 270/2/4
f 271/2/4 272/2/4 273/2/4
f 273/2/4 272/2/4 274/2/4
f 277/2/5 276/2/5 275/2/5
f 278/2/5 276/2/5 277/2/5
f 283/2/5 280/2/5 279/2/5
f 284/2/5 280/2/5 283/2/5
f 285/2/5 282/2/5 281/2/5
f 286/2/5 282/2/5 285/2/5
f 291/2/5 288/2/5 287/2/5
f 292/2/5 288/2/5 291/2/5
f 293/2/5 290/2/5 289/2/5
f 294/2/5 290/2/5 293/2/5
f 295/2/5 293/2/5 292/2/5
f 296/2/5 293/2/5 295/2/5
f 297/2/6 298/2/6 299/2/6
f 299/2/6 298/2/6 300/2/6
f 297/2/6 299/2/6 301/2/6
f 300/2/6 298/2/6 302/2/6
f 297/2/6 301/2/6 303/2/6
f 301/2/6 302/2/6 303/2/6
f 302/2/6 298/2/6 304/2/6
f 303/2/6 302/2/6 304/2/6
f 305/2/6 306/2/6 309/2/6
f 309/2/6 306/2/6 310/2/6
f 307/2/6 308/2/6 313/2/6
f 313/2/6 308/2/6 314/2/6
f 311/2/6 312/2/6 315/2/6
f 315/2/6 312/2/6 316/2/6
f 317/2/6 318/2/6 319/2/6
f 319/2/6 318/2/6 320/2/6
